<?xml version="1.0" encoding="UTF-8"?>
<svg version="1.1" xmlns="http://www.w3.org/2000/svg" width="900" height="900">
<path d="M0 0 C6.76972646 7.14582238 8.81944983 18.17710425 9.07421875 27.8046875 C8.69847625 32.18098254 7.61654168 35.47335687 5 39 C5.45890625 39.391875 5.9178125 39.78375 6.390625 40.1875 C12.99708655 46.6274121 14.47062321 54.20741564 16 63 C16.12270264 63.70205566 16.24540527 64.40411133 16.37182617 65.12744141 C16.95681441 68.96986222 17.19773259 71.81382681 15.5625 75.375 C13.86805688 78.64820667 13.86805688 78.64820667 14 81 C15.66701163 82.11228089 15.66701163 82.11228089 17.75 83.1875 C23.31177243 86.60107461 25.25947339 90.22062091 26.90234375 96.38671875 C28.09948954 101.66629717 29.07614991 106.58066483 29 112 C29.76777228 111.99772168 30.53554456 111.99544336 31.32658267 111.99309599 C76.84559104 111.85878542 122.36457783 111.7558594 167.8837447 111.69360802 C173.35104498 111.68610391 178.81834485 111.67833797 184.28564453 111.67041016 C185.91828453 111.66804936 185.91828453 111.66804936 187.58390716 111.66564088 C205.2003807 111.63954329 222.81673659 111.59224147 240.43314037 111.53708322 C258.51338938 111.48094539 276.59357684 111.44764122 294.67390943 111.43546903 C305.82769737 111.42724226 316.98115275 111.40127246 328.13483831 111.3525012 C335.78658146 111.32075003 343.43815304 111.31120745 351.08995727 111.31899174 C355.50270254 111.3228293 359.91486726 111.31700709 364.32750893 111.28476715 C368.37346846 111.25542319 372.41846082 111.25418685 376.46446624 111.27460663 C377.922294 111.27712774 379.38018378 111.26963825 380.83789071 111.25070091 C391.40489606 111.12148894 399.84064716 112.90407159 408.1433599 119.77330458 C415.98750664 127.86061765 417.60030055 138.00515243 417.50057125 148.85449409 C417.5088425 150.57643377 417.5088425 150.57643377 417.51728085 152.3331601 C417.53085487 156.17228877 417.5159891 160.01076767 417.50120544 163.84988403 C417.50287933 166.63309015 417.51057497 169.41627249 417.51797634 172.19946849 C417.53086003 178.246749 417.52893408 184.29388285 417.51719666 190.34116364 C417.49979072 199.33363419 417.50532201 208.32598972 417.51536357 217.31846628 C417.53254694 233.37954694 417.52702031 249.44055929 417.51200638 265.50163853 C417.49895324 279.55572348 417.4937589 293.60978474 417.49632454 307.66387558 C417.49656516 309.06237879 417.49656516 309.06237879 417.49681065 310.48913458 C417.49747423 314.27379145 417.49817665 318.0584483 417.49893599 321.84310515 C417.50595922 357.34189543 417.49047101 392.840644 417.46431253 428.33942366 C417.44119386 459.88010413 417.43581078 491.42073875 417.44604492 522.96142578 C417.44864692 531.0391801 417.45123193 539.11693442 417.45364285 547.1946888 C417.45394029 548.18914743 417.45423774 549.18360605 417.4545442 550.20819979 C417.46215794 576.56292349 417.45574804 602.91764343 417.44494683 629.27236545 C417.44379902 632.10789693 417.44265584 634.94342841 417.44152 637.77895989 C417.44076475 639.65997789 417.43999911 641.54099588 417.43922299 643.42201387 C417.43356352 657.46887831 417.43489537 671.51573088 417.43945122 685.56259537 C417.44455708 701.53227276 417.43871454 717.50190574 417.41855692 733.47157206 C417.40756457 742.41022688 417.40478299 751.3487944 417.41384545 760.2874519 C417.41906125 766.25681692 417.41337662 772.22610716 417.39879211 778.19545649 C417.39078083 781.59739326 417.38912158 784.99900775 417.39736467 788.40096594 C417.40548825 792.06654918 417.3952341 795.73163682 417.38031673 799.39718819 C417.39042321 800.97900026 417.39042321 800.97900026 417.40073386 802.59276813 C417.32886457 811.69378821 415.53229844 820.28238813 409 827 C400.41210335 833.94671706 394.26773609 836.30136051 383.33669662 836.25726891 C382.24462274 836.26077498 381.15254887 836.26428105 380.02738184 836.26789337 C376.34240301 836.27724893 372.65758079 836.2722733 368.97259521 836.26742554 C366.31419262 836.27115971 363.65580188 836.27568022 360.99740338 836.28115618 C355.20424592 836.29147187 349.4111219 836.29429726 343.61795616 836.29224396 C335.00322756 836.28919803 326.38853604 836.2975089 317.77381464 836.30799321 C301.49341306 836.32735276 285.21302406 836.33296216 268.93261233 836.33410732 C256.36129473 836.33502581 243.78998207 836.33913938 231.21866608 836.34550858 C227.60222221 836.34730362 223.98577834 836.34908325 220.36933446 836.35085833 C219.02080765 836.35152148 219.02080765 836.35152148 217.64503788 836.35219802 C192.35101953 836.36450954 167.0570029 836.37239883 141.76298141 836.37151146 C140.80899359 836.3714803 139.85500577 836.37144914 138.87210923 836.37141704 C134.03672074 836.37125082 129.20133225 836.37105274 124.36594376 836.37084763 C123.40559015 836.37080774 122.44523654 836.37076785 121.45578131 836.37072675 C119.51371132 836.37064587 117.57164134 836.37056228 115.62957135 836.37047596 C85.41237078 836.36925038 55.19521508 836.38426366 24.97802734 836.41162109 C-8.95808639 836.44233271 -42.89417063 836.45955414 -76.83029914 836.45769465 C-80.44800043 836.45754538 -84.06570172 836.45744797 -87.68340302 836.45738602 C-88.57419577 836.45736271 -89.46498852 836.4573394 -90.38277499 836.45731538 C-104.72713496 836.4572538 -119.07145601 836.4700336 -133.4158044 836.48725055 C-147.82907677 836.50419256 -162.24229212 836.50619211 -176.65556893 836.4930319 C-185.22096872 836.4856331 -193.78619546 836.48932838 -202.35157696 836.50891658 C-208.07234331 836.52089525 -213.792984 836.51834914 -219.51374452 836.50397559 C-222.77382862 836.49619452 -226.03350989 836.49691488 -229.29358318 836.51089029 C-232.80714242 836.52495767 -236.31980379 836.51446593 -239.83333206 836.49777794 C-240.84306251 836.5077143 -241.85279296 836.51765066 -242.8931213 836.52788812 C-252.14270025 836.43473905 -260.08430926 833.20683244 -267 827 C-274.32579845 819.05708266 -275.44688893 809.81671537 -275.38031673 799.39718819 C-275.38497665 798.25213529 -275.38963657 797.10708238 -275.3944377 795.92733091 C-275.40639908 792.08613172 -275.39698745 788.24528547 -275.38768005 784.40408325 C-275.3901923 781.62403227 -275.39720757 778.84399666 -275.40399987 776.06395328 C-275.41636515 770.01733372 -275.41757981 763.97079175 -275.41144943 757.92416382 C-275.40235761 748.93250939 -275.41039102 739.94092671 -275.42174067 730.94927779 C-275.44141156 714.8894934 -275.44375418 698.82974127 -275.43854547 682.76994771 C-275.43398908 668.71454606 -275.4345865 654.65915719 -275.44038582 640.60375595 C-275.44114268 638.71870735 -275.44189866 636.83365875 -275.44265376 634.94861015 C-275.44379895 632.10804305 -275.44494883 629.26747595 -275.44611301 626.42690885 C-275.45681881 600.01616785 -275.46154243 573.6054311 -275.45364285 547.1946888 C-275.45334567 546.19901253 -275.4530485 545.20333626 -275.45274232 544.17748798 C-275.45029336 536.0917908 -275.44768179 528.00609367 -275.44505819 519.92039654 C-275.43495556 488.38001628 -275.44331114 456.83968925 -275.46655273 425.29931641 C-275.49262126 389.86525431 -275.50547436 354.43122426 -275.49836498 318.99715221 C-275.49764892 315.21939334 -275.49697453 311.44163446 -275.49632454 307.66387558 C-275.49615473 306.73369231 -275.49598492 305.80350904 -275.49580997 304.84513841 C-275.49350641 290.80007855 -275.50148667 276.75504845 -275.51461601 262.70999527 C-275.5295199 246.73812546 -275.53038027 230.7663254 -275.5125451 214.79445709 C-275.50297512 205.85620344 -275.50443118 196.91811243 -275.52177979 187.9798696 C-275.53226116 182.00815282 -275.52818035 176.03656003 -275.51229975 170.06485547 C-275.50365961 166.6631046 -275.50346952 163.26193355 -275.51656907 159.86015798 C-275.52969376 156.19130359 -275.51819423 152.52331123 -275.50057125 148.85449409 C-275.51504702 147.27970552 -275.51504702 147.27970552 -275.52981523 145.67310303 C-275.43204452 135.76825563 -272.94321813 127.01004252 -266 119.72265625 C-260.05528994 114.60231028 -253.84630264 111.85459572 -246.015625 111.90234375 C-245.08105469 111.90556641 -244.14648438 111.90878906 -243.18359375 111.91210938 C-242.21550781 111.92048828 -241.24742187 111.92886719 -240.25 111.9375 C-239.26644531 111.94201172 -238.28289062 111.94652344 -237.26953125 111.95117188 C-234.84629209 111.96293517 -232.42317727 111.97937316 -230 112 C-230.20753906 111.26523438 -230.41507813 110.53046875 -230.62890625 109.7734375 C-233.01064091 101.1035247 -235.1777199 92.38065119 -237.26730347 83.63604736 C-237.58661119 82.30572301 -237.90941343 80.97623209 -238.23587036 79.64764404 C-242.46503692 62.39511076 -242.46503692 62.39511076 -239.9375 54.8125 C-230.11664038 40.55641346 -207.01619119 38.98542519 -191 36 C-177.56609109 34.23188475 -167.27935314 36.8127258 -156.4453125 44.8671875 C-153.94165525 47.05088855 -151.98831557 49.34582991 -150 52 C-149.45472656 51.02160156 -148.90945312 50.04320312 -148.34765625 49.03515625 C-137.33635116 29.70304653 -123.15040806 20.92792043 -102 15 C-83.58385777 10.10473547 -83.58385777 10.10473547 -75.5625 14.5 C-74.69753906 14.9640625 -73.83257812 15.428125 -72.94140625 15.90625 C-72.30074219 16.2671875 -71.66007813 16.628125 -71 17 C-70.79375 16.2575 -70.5875 15.515 -70.375 14.75 C-68.51067046 11.02134092 -66.68524546 9.94395664 -63 8 C-59.81508813 6.97194486 -56.59012901 6.29027889 -53.3125 5.625 C-51.35798056 5.20746332 -49.40355805 4.78947277 -47.44921875 4.37109375 C-46.41200684 4.15308105 -45.37479492 3.93506836 -44.30615234 3.71044922 C-40.80591617 2.9582939 -37.31915207 2.15836378 -33.83203125 1.34765625 C-32.63344482 1.07163574 -31.4348584 0.79561523 -30.19995117 0.51123047 C-27.86167782 -0.02754808 -25.52454192 -0.57129334 -23.1887207 -1.12060547 C-7.20148015 -4.7464301 -7.20148015 -4.7464301 0 0 Z " fill="#018AD2" transform="translate(379,34)"/>
<path d="M0 0 C0.66 0 1.32 0 2 0 C3.5234375 1.6953125 3.5234375 1.6953125 5.375 4.125 C8.75077464 8.45307273 12.22731821 12.65866198 15.8125 16.8125 C16.8490346 18.01555929 17.88549247 19.2186847 18.921875 20.421875 C19.43556641 21.01806641 19.94925781 21.61425781 20.47851562 22.22851562 C24.22411621 26.58956791 27.92389741 30.98967596 31.63232422 35.38232422 C33.02459417 37.02908979 34.42005473 38.67310067 35.81640625 40.31640625 C40.04853633 45.30026248 44.25737398 50.29559272 48.375 55.375 C52.54221124 60.49813067 56.86312457 65.47594928 61.20263672 70.45263672 C65.10409054 74.93731517 68.88477907 79.50472708 72.625 84.125 C75.5249597 87.63547753 78.50761195 91.06829935 81.5 94.5 C85.99747977 99.65851311 90.38995452 104.88157094 94.69921875 110.19921875 C97.38058916 113.46329783 100.12062863 116.6725072 102.875 119.875 C103.38208496 120.46458496 103.88916992 121.05416992 104.41162109 121.66162109 C104.91902832 122.25152832 105.42643555 122.84143555 105.94921875 123.44921875 C112.17522367 130.68816124 118.3608624 137.95865909 124.375 145.375 C128.54156423 150.49733524 132.86201281 155.47417378 137.20043945 160.45043945 C141.12489097 164.96215363 144.93426783 169.55325555 148.69921875 174.19921875 C151.88035204 178.07166793 155.14753555 181.86728783 158.41601562 185.66601562 C163.18706167 191.21107167 167.91348405 196.79283679 172.63232422 202.38232422 C174.02459417 204.02908979 175.42005473 205.67310067 176.81640625 207.31640625 C181.04853633 212.30026248 185.25737398 217.29559272 189.375 222.375 C193.54156423 227.49733524 197.86201281 232.47417378 202.20043945 237.45043945 C206.12489097 241.96215363 209.93426783 246.55325555 213.69921875 251.19921875 C216.88035204 255.07166793 220.14753555 258.86728783 223.41601562 262.66601562 C228.18706167 268.21107167 232.91348405 273.79283679 237.63232422 279.38232422 C239.02459417 281.02908979 240.42005473 282.67310067 241.81640625 284.31640625 C246.91562976 290.32131406 251.95393649 296.36654064 256.91796875 302.484375 C259.45489563 305.54962999 262.09649805 308.50887882 264.78515625 311.44140625 C266 313 266 313 266 315 C254.48690499 318.80114441 242.9734826 322.60129558 231.45968914 326.40032387 C226.10798754 328.16617323 220.75638161 329.93231115 215.4050293 331.69921875 C209.1909039 333.75094449 202.97642564 335.80159883 196.76171875 337.8515625 C195.73197811 338.19129341 194.70223747 338.53102432 193.64129257 338.88105011 C182.40042483 342.58860699 171.15519224 346.28196012 159.89697266 349.93652344 C158.92463716 350.2522827 157.95230165 350.56804195 156.95050144 350.89336967 C152.38667904 352.37488634 147.82200772 353.85369348 143.25578308 355.32778931 C134.72148548 358.08978197 126.22292216 360.92057031 117.78734303 363.97280693 C113.12117005 365.65066095 108.41513172 367.10780046 103.6484375 368.47265625 C102.47072784 368.81262131 102.47072784 368.81262131 101.26922607 369.15945435 C100.64767639 369.33773773 100.02612671 369.51602112 99.38574219 369.69970703 C92.26437537 371.77938937 85.24912505 374.19017962 78.22094727 376.56185913 C73.67331883 378.095823 69.12178924 379.61812467 64.5703125 381.140625 C63.62943787 381.45549362 62.68856323 381.77036224 61.71917725 382.09477234 C50.99653039 385.67798811 40.25025551 389.18814963 29.5 392.6875 C28.58712219 392.9851828 27.67424438 393.2828656 26.73370361 393.58956909 C24.12500308 394.44001149 21.51574182 395.28870782 18.90625 396.13671875 C18.1506076 396.3830304 17.39496521 396.62934204 16.61642456 396.88311768 C15.1594701 397.35542609 13.69962471 397.81891564 12.23693848 398.27316284 C10.66304409 398.78456042 9.1054408 399.34752942 7.56286621 399.94680786 C0.83916884 402.38880086 -3.12679745 401.76897684 -9.65625 399.09375 C-10.57075928 398.74753098 -11.48526855 398.40131195 -12.42749023 398.04460144 C-15.46250007 396.88940415 -18.48020019 395.69433023 -21.5 394.5 C-23.66862241 393.66823488 -25.83858007 392.83994389 -28.00976562 392.01489258 C-31.44610678 390.70833006 -34.88132663 389.39930875 -38.31262207 388.07954407 C-50.10597967 383.54488368 -61.98480945 379.25906141 -73.8762207 374.98965454 C-95.81560229 367.10604381 -117.69988284 359.07581823 -139.56695557 350.99423218 C-157.50803795 344.36566915 -175.4834408 337.83943944 -193.48748779 331.38400269 C-212.04440885 324.72907755 -230.54221876 317.92492741 -249 311 C-249 306.11438064 -247.28230747 304.54252804 -244.1875 301.125 C-243.16833954 299.96289236 -242.1514803 298.79876327 -241.13671875 297.6328125 C-240.61384277 297.0337207 -240.0909668 296.43462891 -239.55224609 295.81738281 C-237.10533274 292.95251603 -234.8037483 289.9802921 -232.5 287 C-228.42754806 281.75691833 -224.21973473 276.65560337 -219.90966797 271.60668945 C-216.5959129 267.72051545 -213.3805778 263.77039748 -210.20703125 259.76953125 C-207.43126589 256.28631419 -204.62299213 252.83021803 -201.8125 249.375 C-200.98153809 248.35273315 -200.98153809 248.35273315 -200.13378906 247.30981445 C-197.31219538 243.83954595 -194.48780051 240.37158998 -191.66015625 236.90625 C-186.50707195 230.58530627 -181.38723587 224.2459018 -176.375 217.8125 C-172.34017962 212.63627425 -168.16978529 207.59741809 -163.90917969 202.60595703 C-160.59542041 198.72016568 -157.38039624 194.77016858 -154.20703125 190.76953125 C-151.43126687 187.28631542 -148.62308435 183.83014172 -145.8125 180.375 C-145.2570752 179.69203857 -144.70165039 179.00907715 -144.12939453 178.30541992 C-142.98822213 176.90242221 -141.8469451 175.49950959 -140.70556641 174.09667969 C-137.96883521 170.73237286 -135.2345045 167.36611672 -132.5 164 C-131.41667893 162.6666567 -130.33334558 161.33332338 -129.25 160 C-128.71375 159.34 -128.1775 158.68 -127.625 158 C-122.75 152 -122.75 152 -121.12451172 149.99951172 C-120.04265888 148.66792549 -118.96095282 147.33622 -117.87939453 146.00439453 C-115.14960892 142.64333059 -112.41719783 139.28446381 -109.6796875 135.9296875 C-104.51982364 129.60113653 -99.39349147 123.2539311 -94.375 116.8125 C-90.34017962 111.63627425 -86.16978529 106.59741809 -81.90917969 101.60595703 C-78.59542041 97.72016568 -75.38039624 93.77016858 -72.20703125 89.76953125 C-69.43126687 86.28631542 -66.62308435 82.83014172 -63.8125 79.375 C-63.2570752 78.69203857 -62.70165039 78.00907715 -62.12939453 77.30541992 C-60.98822213 75.90242221 -59.8469451 74.49950959 -58.70556641 73.09667969 C-55.96883521 69.73237286 -53.2345045 66.36611672 -50.5 63 C-49.41667893 61.6666567 -48.33334558 60.33332338 -47.25 59 C-46.445625 58.01 -46.445625 58.01 -45.625 57 C-27.75 35 -27.75 35 -26.12304688 32.99780273 C-25.04595401 31.67201288 -23.96912856 30.34600573 -22.89257812 29.01977539 C-20.09098344 25.5691446 -17.28404998 22.12305501 -14.46875 18.68359375 C-13.59766602 17.6172168 -13.59766602 17.6172168 -12.70898438 16.52929688 C-11.60785924 15.18151971 -10.50511763 13.83506078 -9.40039062 12.49023438 C-6.88743282 9.41097621 -4.50023928 6.31264293 -2.25 3.03515625 C-1.13625 1.53275391 -1.13625 1.53275391 0 0 Z " fill="#85D0F5" transform="translate(442,211)"/>
<path d="M0 0 C0.33 0 0.66 0 1 0 C1 132 1 264 1 400 C-9.12425168 397.75016629 -9.12425168 397.75016629 -13.88452148 395.99487305 C-14.960224 395.60150253 -16.03592651 395.20813202 -17.14422607 394.80284119 C-18.29159241 394.37677078 -19.43895874 393.95070038 -20.62109375 393.51171875 C-22.50463905 392.82055235 -24.38818503 392.12938778 -26.27175713 391.43829441 C-28.2769668 390.70135453 -30.28112931 389.961632 -32.28500366 389.22106934 C-36.50208078 387.66272098 -40.72203485 386.11227594 -44.94262695 384.56347656 C-46.38609395 384.03372413 -47.82956013 383.50396948 -49.27302551 382.97421265 C-49.99203348 382.71035137 -50.71104145 382.4464901 -51.45183754 382.17463303 C-53.65170445 381.36702631 -55.85129745 380.55867755 -58.05082703 379.75015259 C-71.05318613 374.97186452 -84.07554533 370.2501886 -97.10430908 365.54434204 C-137.92898913 350.79740254 -178.68831866 335.87390623 -219.41235352 320.8515625 C-221.15331299 320.20942055 -221.15331299 320.20942055 -222.92944336 319.55430603 C-225.08326613 318.75977538 -227.23700107 317.96500658 -229.390625 317.16993713 C-235.92021649 314.76091218 -242.45712685 312.37271447 -249 310 C-249 305.11438064 -247.28230747 303.54252804 -244.1875 300.125 C-243.16833954 298.96289236 -242.1514803 297.79876327 -241.13671875 296.6328125 C-240.61384277 296.0337207 -240.0909668 295.43462891 -239.55224609 294.81738281 C-237.10533274 291.95251603 -234.8037483 288.9802921 -232.5 286 C-228.42754806 280.75691833 -224.21973473 275.65560337 -219.90966797 270.60668945 C-216.5959129 266.72051545 -213.3805778 262.77039748 -210.20703125 258.76953125 C-207.43126589 255.28631419 -204.62299213 251.83021803 -201.8125 248.375 C-200.98153809 247.35273315 -200.98153809 247.35273315 -200.13378906 246.30981445 C-197.31219538 242.83954595 -194.48780051 239.37158998 -191.66015625 235.90625 C-186.50707195 229.58530627 -181.38723587 223.2459018 -176.375 216.8125 C-172.34017962 211.63627425 -168.16978529 206.59741809 -163.90917969 201.60595703 C-160.59542041 197.72016568 -157.38039624 193.77016858 -154.20703125 189.76953125 C-151.43126687 186.28631542 -148.62308435 182.83014172 -145.8125 179.375 C-145.2570752 178.69203857 -144.70165039 178.00907715 -144.12939453 177.30541992 C-142.98822213 175.90242221 -141.8469451 174.49950959 -140.70556641 173.09667969 C-137.96883521 169.73237286 -135.2345045 166.36611672 -132.5 163 C-131.41667893 161.6666567 -130.33334558 160.33332338 -129.25 159 C-128.71375 158.34 -128.1775 157.68 -127.625 157 C-122.75 151 -122.75 151 -121.12451172 148.99951172 C-120.04265888 147.66792549 -118.96095282 146.33622 -117.87939453 145.00439453 C-115.14960892 141.64333059 -112.41719783 138.28446381 -109.6796875 134.9296875 C-104.51982364 128.60113653 -99.39349147 122.2539311 -94.375 115.8125 C-90.34017962 110.63627425 -86.16978529 105.59741809 -81.90917969 100.60595703 C-78.59542041 96.72016568 -75.38039624 92.77016858 -72.20703125 88.76953125 C-69.43126687 85.28631542 -66.62308435 81.83014172 -63.8125 78.375 C-63.2570752 77.69203857 -62.70165039 77.00907715 -62.12939453 76.30541992 C-60.98822213 74.90242221 -59.8469451 73.49950959 -58.70556641 72.09667969 C-55.96883521 68.73237286 -53.2345045 65.36611672 -50.5 62 C-49.41667893 60.6666567 -48.33334558 59.33332338 -47.25 58 C-46.445625 57.01 -46.445625 57.01 -45.625 56 C-39.66666667 48.66666667 -33.70833333 41.33333333 -27.75 34 C-27.21310547 33.33919434 -26.67621094 32.67838867 -26.12304688 31.99755859 C-25.04627304 30.6723234 -23.9694506 29.3471277 -22.89257812 28.02197266 C-20.08347232 24.56507002 -17.27536678 21.10736136 -14.46875 17.6484375 C-13.88802734 16.93300781 -13.30730469 16.21757812 -12.70898438 15.48046875 C-11.60580375 14.12135022 -10.50291769 12.76199251 -9.40039062 11.40234375 C-7.93649137 9.59917975 -6.46859881 7.79933697 -5 6 C-4.28263672 5.11296387 -4.28263672 5.11296387 -3.55078125 4.20800781 C-2.38972409 2.78662767 -1.19792562 1.39044938 0 0 Z " fill="#FEFEFE" transform="translate(442,212)"/>
<path d="M0 0 C6.76972646 7.14582238 8.81944983 18.17710425 9.07421875 27.8046875 C8.69847625 32.18098254 7.61654168 35.47335687 5 39 C5.45890625 39.391875 5.9178125 39.78375 6.390625 40.1875 C12.99708655 46.6274121 14.47062321 54.20741564 16 63 C16.12270264 63.70205566 16.24540527 64.40411133 16.37182617 65.12744141 C16.95681441 68.96986222 17.19773259 71.81382681 15.5625 75.375 C13.86805688 78.64820667 13.86805688 78.64820667 14 81 C15.66701163 82.11228089 15.66701163 82.11228089 17.75 83.1875 C22.73089791 86.2147595 24.95170618 89.69245225 26.6796875 95.14453125 C28.62327628 103.17181915 30.20676527 113.71197269 26.3515625 121.203125 C21.78673559 126.63238757 16.76739756 128.66283148 9.9609375 130.03515625 C9.19882965 130.1999498 8.4367218 130.36474335 7.65151978 130.53453064 C5.22841546 131.05599516 2.80206417 131.55982353 0.375 132.0625 C-2.02290308 132.57108009 -4.42000282 133.08331081 -6.81698608 133.59620667 C-8.37353821 133.92876184 -9.93052283 134.25929947 -11.48794556 134.5877533 C-16.86528983 135.72843612 -22.1884003 137.01753993 -27.49609375 138.45166016 C-32.91840439 139.63911235 -38.0675123 139.83362215 -43.1875 137.625 C-44.115625 137.41875 -45.04375 137.2125 -46 137 C-47.85286369 138.22921689 -49.2885409 139.59921724 -50.80078125 141.2265625 C-63.93578356 151.81855371 -86.82168977 153.46042921 -103 152 C-110.96077864 150.82844995 -116.58015693 147.7125881 -123 143 C-123.66 142.67 -124.32 142.34 -125 142 C-124.88140625 142.56847656 -124.7628125 143.13695312 -124.640625 143.72265625 C-123.80584309 148.7229999 -123.66299412 152.23410723 -126.6015625 156.50390625 C-132.00493325 162.28460736 -140.08268972 162.99903703 -147.51171875 164.2890625 C-150.91974742 164.87556244 -150.91974742 164.87556244 -153.67578125 166.0703125 C-158.35347214 167.94138885 -163.34175234 167.54146862 -168.0625 166 C-168.701875 165.67 -169.34125 165.34 -170 165 C-170.38929688 165.40992188 -170.77859375 165.81984375 -171.1796875 166.2421875 C-175.36885351 170.27691421 -178.61245599 171.72707372 -184.33203125 172.56640625 C-187.14052499 173.02283788 -189.7211624 173.78413658 -192.4375 174.625 C-199.28702408 176.51686572 -205.7980759 177.39720324 -212.4375 174.5 C-218.43728796 168.64654833 -219.77329795 161.40540028 -221 153.375 C-222.24987596 145.85021118 -223.81358983 138.74278477 -226.05859375 131.453125 C-227.37757797 126.61502522 -228.19299913 121.72244678 -228.96118164 116.77026367 C-229.40569404 113.98370384 -229.84112 111.3833415 -230.92504883 108.76806641 C-232.28971311 105.25397064 -233.0949484 101.66624444 -233.91015625 97.99609375 C-234.08252304 97.23579361 -234.25488983 96.47549347 -234.43247986 95.69215393 C-234.97968166 93.27478878 -235.52123704 90.85620109 -236.0625 88.4375 C-236.60860481 86.01552877 -237.15584666 83.59381654 -237.70323181 81.1721344 C-238.04260149 79.66873298 -238.38099252 78.16511023 -238.71827698 76.66123962 C-239.31997067 73.9813155 -239.92266456 71.30470353 -240.59838867 68.64233398 C-241.73741677 63.98443612 -241.44048088 59.32144263 -239.9375 54.8125 C-230.11664038 40.55641346 -207.01619119 38.98542519 -191 36 C-177.56609109 34.23188475 -167.27935314 36.8127258 -156.4453125 44.8671875 C-153.94165525 47.05088855 -151.98831557 49.34582991 -150 52 C-149.45472656 51.02160156 -148.90945312 50.04320312 -148.34765625 49.03515625 C-137.33635116 29.70304653 -123.15040806 20.92792043 -102 15 C-83.58385777 10.10473547 -83.58385777 10.10473547 -75.5625 14.5 C-74.69753906 14.9640625 -73.83257812 15.428125 -72.94140625 15.90625 C-72.30074219 16.2671875 -71.66007813 16.628125 -71 17 C-70.79375 16.2575 -70.5875 15.515 -70.375 14.75 C-68.51067046 11.02134092 -66.68524546 9.94395664 -63 8 C-59.81508813 6.97194486 -56.59012901 6.29027889 -53.3125 5.625 C-51.35798056 5.20746332 -49.40355805 4.78947277 -47.44921875 4.37109375 C-46.41200684 4.15308105 -45.37479492 3.93506836 -44.30615234 3.71044922 C-40.80591617 2.9582939 -37.31915207 2.15836378 -33.83203125 1.34765625 C-32.63344482 1.07163574 -31.4348584 0.79561523 -30.19995117 0.51123047 C-27.86167782 -0.02754808 -25.52454192 -0.57129334 -23.1887207 -1.12060547 C-7.20148015 -4.7464301 -7.20148015 -4.7464301 0 0 Z " fill="#F7F7F8" transform="translate(379,34)"/>
<path d="M0 0 C1.95292969 -0.02126953 1.95292969 -0.02126953 3.9453125 -0.04296875 C12.68975229 0.46987613 18.62527757 3.56280119 24.5 9.9375 C34.39203474 21.72514493 36.56765785 36.20421703 35.875 51.1875 C35.20329187 57.38640644 33.18083842 61.88762981 29.703125 67.046875 C28.62449422 69.22030344 28.62449422 69.22030344 29.515625 71.703125 C30.91284736 74.25666932 32.36999625 76.08388951 34.375 78.1875 C37.88168778 82.00246802 41.10575167 85.94973138 44.25 90.0625 C44.67861328 90.62195313 45.10722656 91.18140625 45.54882812 91.7578125 C50.91996576 98.81653246 50.91996576 98.81653246 50.625 101.25 C49.875 103.1875 49.875 103.1875 47.875 105.1875 C44.99712808 105.98723317 42.16485911 106.68289043 39.25 107.3125 C38.46753906 107.49425781 37.68507813 107.67601562 36.87890625 107.86328125 C31.77162704 108.9897624 27.1021665 109.68452758 21.875 109.1875 C19.6953125 107.67578125 19.6953125 107.67578125 18 105.5 C17.34902344 104.69046875 16.69804687 103.8809375 16.02734375 103.046875 C15.31707031 102.10328125 14.60679687 101.1596875 13.875 100.1875 C12.55220756 98.45749995 11.22641669 96.72983306 9.89990234 95.00268555 C9.02128448 93.85124384 8.15023908 92.6939767 7.28759766 91.53051758 C5.27855645 88.84761889 3.6975042 87.06916947 0.875 85.1875 C1.03170166 85.88834717 1.18840332 86.58919434 1.34985352 87.3112793 C2.05606294 90.49699817 2.74691635 93.68585904 3.4375 96.875 C3.68435547 97.97779297 3.93121094 99.08058594 4.18554688 100.21679688 C4.41435547 101.28349609 4.64316406 102.35019531 4.87890625 103.44921875 C5.09361572 104.42850342 5.3083252 105.40778809 5.52954102 106.41674805 C5.89084813 109.31460983 5.66810394 111.38978635 4.875 114.1875 C2.47004616 116.59245384 -2.63612467 116.609915 -5.875 117.25 C-6.7825 117.43626953 -7.69 117.62253906 -8.625 117.81445312 C-9.50671875 117.99041016 -10.3884375 118.16636719 -11.296875 118.34765625 C-12.1022168 118.50886963 -12.90755859 118.67008301 -13.73730469 118.83618164 C-16.33321423 119.21813602 -18.51205891 119.51879697 -21.125 119.1875 C-24.00439617 116.42456193 -24.69396805 113.63338435 -25.40625 109.78515625 C-25.60686035 108.73610107 -25.8074707 107.6870459 -26.01416016 106.60620117 C-26.2157373 105.49865479 -26.41731445 104.3911084 -26.625 103.25 C-27.058592 100.97631347 -27.4934742 98.70287258 -27.9296875 96.4296875 C-28.13561523 95.34397461 -28.34154297 94.25826172 -28.55371094 93.13964844 C-29.9561479 85.89252546 -31.72639631 78.73878967 -33.55859375 71.58984375 C-35.09578123 65.4491197 -36.36016978 59.27617395 -37.5625 53.0625 C-39.19921172 44.71203168 -40.9016088 36.38841583 -42.86889648 28.10888672 C-43.32448847 26.14070995 -43.73363365 24.16939464 -44.125 22.1875 C-44.37540039 21.03894531 -44.37540039 21.03894531 -44.63085938 19.8671875 C-45.34868962 15.78263232 -45.57306086 13.92042074 -43.35546875 10.29296875 C-38.90970085 7.39542474 -34.60156728 6.50652617 -29.4375 5.5 C-28.49455078 5.30083984 -27.55160156 5.10167969 -26.58007812 4.89648438 C-22.80178556 4.10447116 -19.01616205 3.3574523 -15.22412109 2.63427734 C-14.31871582 2.45977051 -13.41331055 2.28526367 -12.48046875 2.10546875 C-11.66602295 1.95231201 -10.85157715 1.79915527 -10.01245117 1.64135742 C-3.25273829 0.01591359 -3.25273829 0.01591359 0 0 Z " fill="#542E88" transform="translate(194.125,80.8125)"/>
<path d="M0 0 C4.76366421 6.5446738 5.91387001 17.44802786 4.734375 25.3828125 C2.734375 28.3828125 2.734375 28.3828125 -0.390625 29.0703125 C-4.265625 29.3828125 -4.265625 29.3828125 -8.078125 29.2578125 C-14.28736983 29.18533104 -20.07119839 30.96557865 -25.265625 34.3203125 C-30.05132239 39.25556293 -29.66028469 44.51347972 -29.62915039 51.03710938 C-29.34897918 63.55889478 -26.71998387 74.75151272 -18.265625 84.3828125 C-17.57726562 85.2490625 -17.57726562 85.2490625 -16.875 86.1328125 C-14.58836245 87.90884166 -12.92922382 87.68139427 -10.078125 87.5703125 C-9.17707031 87.54324219 -8.27601563 87.51617187 -7.34765625 87.48828125 C-6.66058594 87.45347656 -5.97351563 87.41867188 -5.265625 87.3828125 C-3.70829667 82.55509469 -4.68484819 78.08816569 -6.265625 73.3828125 C-7.255625 72.3928125 -7.255625 72.3928125 -8.265625 71.3828125 C-10.27585675 71.41472094 -12.28836169 71.45184466 -14.29296875 71.60546875 C-16.265625 71.3828125 -16.265625 71.3828125 -17.9140625 70.23046875 C-21.88264469 64.80521044 -22.99149406 55.84372645 -22.65625 49.22265625 C-22.265625 47.3828125 -22.265625 47.3828125 -20.515625 44.9453125 C-16.48969094 43.00976728 -12.74020877 42.4873012 -8.3359375 41.88671875 C-5.51363059 41.42351571 -3.06999621 40.73419353 -0.390625 39.7578125 C3.15348373 38.51673471 5.9479787 37.69437681 9.734375 38.3828125 C14.3909642 42.08965596 15.6530194 45.47997336 16.421875 51.1953125 C16.63157116 52.55638387 16.84381297 53.91706548 17.05859375 55.27734375 C17.21690674 56.30021484 17.21690674 56.30021484 17.37841797 57.34375 C17.84394747 60.01048689 18.49815937 62.62288223 19.17895508 65.24194336 C20.25744591 69.39899221 21.23558177 73.58104081 22.234375 77.7578125 C22.55341797 79.08039063 22.55341797 79.08039063 22.87890625 80.4296875 C27.59646119 100.1681689 27.59646119 100.1681689 26.734375 104.3828125 C20.85899744 112.12585975 10.75436275 114.19539446 1.671875 115.5703125 C0.58777344 115.70824219 -0.49632812 115.84617187 -1.61328125 115.98828125 C-4.23450893 116.23777522 -4.23450893 116.23777522 -6.265625 117.3828125 C-18.88787436 118.29185289 -28.80738323 117.51449126 -38.70898438 108.95922852 C-53.86966501 95.15896946 -60.19310963 76.5489321 -61.39135742 56.25317383 C-61.88677122 42.38002471 -61.07143268 30.70133137 -52.265625 19.3828125 C-51.54375 18.3515625 -50.821875 17.3203125 -50.078125 16.2578125 C-42.16652137 7.19086358 -11.72277468 -8.36763572 0 0 Z " fill="#582F88" transform="translate(299.265625,58.6171875)"/>
<path d="M0 0 C5.40304242 4.35530416 8.77576791 9.29505704 11.8671875 15.46875 C12.28226562 16.26667969 12.69734375 17.06460938 13.125 17.88671875 C18.35008309 29.67055998 17.21225753 45.10817588 12.9375 57.0703125 C10.7852808 61.6771288 8.47040262 66.09906747 5.8671875 70.46875 C10.8171875 74.92375 10.8171875 74.92375 15.8671875 79.46875 C10.1171875 86.21875 10.1171875 86.21875 7.8671875 88.46875 C3.42774633 88.10486138 1.46694887 85.18848534 -1.3515625 82.0625 C-3.4067597 80.22363935 -4.38777411 79.67300875 -7.1328125 79.46875 C-9.99922419 80.23166065 -9.99922419 80.23166065 -13.0703125 81.40625 C-24.91522355 85.24820207 -36.62243973 84.43334833 -47.6953125 78.84375 C-57.58070593 73.10028119 -62.7460923 65.94658488 -67.1328125 55.46875 C-67.51050781 54.58960938 -67.88820312 53.71046875 -68.27734375 52.8046875 C-69.52536983 47.93795566 -69.46141301 43.22278809 -69.4453125 38.21875 C-69.46142578 37.23261719 -69.47753906 36.24648438 -69.49414062 35.23046875 C-69.50238617 22.71373385 -65.45517256 12.19644522 -57.1328125 2.78125 C-41.31849463 -12.18016084 -17.13421163 -12.30148527 0 0 Z " fill="#FAFCFE" transform="translate(218.1328125,669.53125)"/>
<path d="M0 0 C7.693125 -0.0825 15.38625 -0.165 23.3125 -0.25 C25.71829346 -0.28641602 28.12408691 -0.32283203 30.6027832 -0.36035156 C32.54377352 -0.37205142 34.48477378 -0.38224016 36.42578125 -0.390625 C37.89597717 -0.4213208 37.89597717 -0.4213208 39.39587402 -0.45263672 C47.20582487 -0.45651599 55.30315992 0.63205499 61.27510071 6.07269287 C65.78085942 11.07145187 67.16396598 13.95331242 67.25 20.75 C67.27578125 21.96171875 67.3015625 23.1734375 67.328125 24.421875 C66.90753263 29.0083347 65.58477915 32.26601772 62.46484375 35.6796875 C58.22222222 39 58.22222222 39 56 39 C56 39.66 56 40.32 56 41 C56.680625 41.04125 57.36125 41.0825 58.0625 41.125 C63.29846617 42.6846495 66.84255162 46.11948364 69.67578125 50.72265625 C72.43982635 57.56346404 72.34021361 66.11681699 69.93359375 73.08984375 C65.30336826 81.47976187 58.68827982 84.79411681 49.7744751 87.38467407 C45.09583857 88.42230687 40.51481638 88.36898127 35.7421875 88.29296875 C34.82832275 88.28994751 33.91445801 88.28692627 32.97290039 88.28381348 C29.60681628 88.26829061 26.24089502 88.22640876 22.875 88.1875 C15.32625 88.125625 7.7775 88.06375 0 88 C0 58.96 0 29.92 0 0 Z " fill="#F8FCFD" transform="translate(530,663)"/>
<path d="M0 0 C3.625 0.25 3.625 0.25 5.28125 1.4765625 C7.85632822 4.8750669 7.97598266 9.12963303 8.625 13.25 C8.79644531 14.08015625 8.96789062 14.9103125 9.14453125 15.765625 C9.28246094 16.54421875 9.42039062 17.3228125 9.5625 18.125 C9.76166016 19.17300781 9.76166016 19.17300781 9.96484375 20.2421875 C9.625 22.25 9.625 22.25 7.62890625 24.37109375 C4.01658224 26.63055779 0.75014249 27.53560077 -3.375 28.4375 C-4.07367188 28.60185547 -4.77234375 28.76621094 -5.4921875 28.93554688 C-9.10573035 29.77757054 -12.73226654 30.54564334 -16.375 31.25 C-16.28766424 32.85517097 -16.17947776 34.45921662 -16.0625 36.0625 C-16.00449219 36.95582031 -15.94648438 37.84914062 -15.88671875 38.76953125 C-15.52929491 41.25942174 -15.52929491 41.25942174 -14.1640625 43.12109375 C-12.37617135 44.48700668 -12.37617135 44.48700668 -9.88671875 44.140625 C-8.95472656 43.92921875 -8.02273438 43.7178125 -7.0625 43.5 C-6.08023438 43.29117188 -5.09796875 43.08234375 -4.0859375 42.8671875 C-3.19132812 42.66351563 -2.29671875 42.45984375 -1.375 42.25 C3.41349387 41.31107963 7.75751592 40.92550106 12.625 41.25 C14.76726357 44.46339535 15.39527449 46.81983832 16.25 50.5625 C16.51039063 51.67238281 16.77078125 52.78226563 17.0390625 53.92578125 C17.62604118 57.25590695 18.08695468 59.89403512 17.625 63.25 C15.04351787 66.90323518 12.78701142 68.45748449 8.48828125 69.32421875 C6.974259 69.54915168 5.45700384 69.75320055 3.9375 69.9375 C-1.72795925 70.3985626 -1.72795925 70.3985626 -6.375 73.25 C-6.43507156 75.33498067 -6.43507156 75.33498067 -6.0625 77.625 C-5.91361328 78.78128906 -5.91361328 78.78128906 -5.76171875 79.9609375 C-5.40112969 82.09533338 -4.93339834 84.15958571 -4.375 86.25 C5.88402059 86.75021553 5.88402059 86.75021553 15.625 84.25 C17.71875 84.046875 17.71875 84.046875 20.125 84 C20.9190625 83.97421875 21.713125 83.9484375 22.53125 83.921875 C23.2221875 84.03015625 23.913125 84.1384375 24.625 84.25 C28.74667379 90.43251069 30.5922622 99.8343231 29.625 107.25 C27.16904018 110.72918638 24.02251102 111.10426129 20.0078125 111.96875 C19.35481171 112.11276245 18.70181091 112.2567749 18.02902222 112.40515137 C15.93813332 112.86390026 13.84433579 113.3072831 11.75 113.75 C10.37998288 114.04713948 9.01018834 114.34530717 7.640625 114.64453125 C5.60834767 115.08814978 3.57580637 115.53007385 1.54176331 115.9655304 C-3.84118262 117.11866533 -9.19493164 118.37909875 -14.54272461 119.6862793 C-18.75985324 120.52563366 -23.10643781 120.91669227 -27.375 120.25 C-29.84825559 117.77674441 -29.97511018 116.28435818 -30.671875 112.87890625 C-30.90495361 111.76249756 -31.13803223 110.64608887 -31.37817383 109.49584961 C-31.62462646 108.28034424 -31.8710791 107.06483887 -32.125 105.8125 C-32.52732196 103.87951188 -32.92966406 101.9465275 -33.33357239 100.01387024 C-33.61027573 98.68924572 -33.88613445 97.36444451 -34.16117859 96.03947449 C-35.43655093 89.90667743 -36.80763878 83.79742602 -38.1875 77.6875 C-40.73589449 66.282605 -43.20343542 54.86041106 -45.62753296 43.42849731 C-46.03980311 41.48890543 -46.4545051 39.54982872 -46.87173462 37.61129761 C-47.46048911 34.87249436 -48.03993679 32.13187282 -48.6171875 29.390625 C-48.79500259 28.57189407 -48.97281769 27.75316315 -49.15602112 26.90962219 C-51.59668602 15.17622281 -51.59668602 15.17622281 -49.19555664 11.39038086 C-46.88698752 9.94431322 -44.92745745 9.49598819 -42.24609375 9.00390625 C-40.70501953 8.7104834 -40.70501953 8.7104834 -39.1328125 8.41113281 C-38.03710938 8.21358398 -36.94140625 8.01603516 -35.8125 7.8125 C-33.55050137 7.38298176 -31.28878399 6.95197983 -29.02734375 6.51953125 C-27.90569824 6.3076416 -26.78405273 6.09575195 -25.62841797 5.87744141 C-21.02755752 4.99013754 -16.44933835 4.01425836 -11.875 3 C-11.12275146 2.83701416 -10.37050293 2.67402832 -9.59545898 2.50610352 C-6.08864918 1.72593684 -3.46376887 0.25657547 0 0 Z " fill="#5B2F89" transform="translate(367.375,41.75)"/>
<path d="M0 0 C1.87939453 -0.34057617 1.87939453 -0.34057617 4.1328125 -0.29296875 C4.93847656 -0.28330078 5.74414062 -0.27363281 6.57421875 -0.26367188 C7.83685547 -0.2259668 7.83685547 -0.2259668 9.125 -0.1875 C9.97449219 -0.17396484 10.82398438 -0.16042969 11.69921875 -0.14648438 C13.79974837 -0.11108219 15.89995293 -0.05727401 18 0 C51 65.85144695 51 65.85144695 51 89 C44.4 89 37.8 89 31 89 C28.69 81.41 26.38 73.82 24 66 C13.77 65.67 3.54 65.34 -7 65 C-7.99 69.95 -7.99 69.95 -9 75 C-9.6469479 77.36563213 -10.32891615 79.72228384 -11.0625 82.0625 C-11.40410156 83.16722656 -11.74570312 84.27195312 -12.09765625 85.41015625 C-13 88 -13 88 -14 89 C-15.41570123 89.08651611 -16.835595 89.10704904 -18.25390625 89.09765625 C-19.10791016 89.09443359 -19.96191406 89.09121094 -20.84179688 89.08789062 C-21.73962891 89.07951172 -22.63746094 89.07113281 -23.5625 89.0625 C-24.46419922 89.05798828 -25.36589844 89.05347656 -26.29492188 89.04882812 C-28.53001314 89.03700225 -30.76497437 89.0205222 -33 89 C-32.3509557 82.63403126 -30.53718762 76.8213567 -28.5625 70.75 C-28.20833008 69.6573584 -27.85416016 68.5647168 -27.48925781 67.43896484 C-10.55290407 15.8293561 -10.55290407 15.8293561 0 0 Z " fill="#FAFDFE" transform="translate(361,662)"/>
<path d="M0 0 C5.94 0 11.88 0 18 0 C29.68418733 22.50287929 38.24568512 45.86208793 46.3125 69.84765625 C46.55478836 70.56658554 46.79707672 71.28551483 47.04670715 72.02622986 C51 83.86866342 51 83.86866342 51 89 C44.73 89 38.46 89 32 89 C31.01 86.03 30.02 83.06 29 80 C27.94228154 77.15229645 26.86166568 74.31510981 25.76953125 71.48046875 C25 69 25 69 25 65 C9.655 65.495 9.655 65.495 -6 66 C-8.31 73.59 -10.62 81.18 -13 89 C-19.6 89 -26.2 89 -33 89 C-30.61770398 78.67395035 -27.38220904 68.75762904 -23.9375 58.75 C-23.65098572 57.91395233 -23.36447144 57.07790466 -23.0692749 56.21652222 C-16.45919621 36.97674242 -8.79215281 18.34884064 0 0 Z " fill="#FBFDFE" transform="translate(639,662)"/>
<path d="M0 0 C6.27 0 12.54 0 19 0 C19.01458252 1.74015381 19.02916504 3.48030762 19.04418945 5.27319336 C19.09604619 11.05283272 19.16138633 16.83223724 19.23571491 22.61162472 C19.28025108 26.1122344 19.31954269 29.61273219 19.34643555 33.11352539 C19.37766317 37.14758877 19.43244401 41.18104536 19.48828125 45.21484375 C19.49467117 46.45894516 19.5010611 47.70304657 19.50764465 48.98484802 C19.61929225 55.64362889 19.86947089 61.981306 23 68 C27.31213682 72.06769883 31.27204378 72.60438594 37 72.4375 C37.68578125 72.44458984 38.3715625 72.45167969 39.078125 72.45898438 C43.7700718 72.40078274 47.16178787 71.72803159 51 69 C54.98086521 62.35948197 54.47694298 55.29521746 54.51171875 47.75390625 C54.52858537 46.37383954 54.54673826 44.993788 54.56611633 43.61375427 C54.61340792 40.00205225 54.64335125 36.39041177 54.66955566 32.77850342 C54.69946719 29.08463388 54.74596079 25.390976 54.79101562 21.69726562 C54.87681135 14.4649312 54.94272628 7.23262684 55 0 C61.6 0 68.2 0 75 0 C75.06819494 7.48535665 75.12305523 14.97059491 75.15543652 22.4561882 C75.17099005 25.93331334 75.19203537 29.41021211 75.22631836 32.88720703 C75.26561778 36.89878317 75.27979421 40.91012731 75.29296875 44.921875 C75.30845261 46.15049255 75.32393646 47.37911011 75.33988953 48.6449585 C75.34203437 59.81741948 74.07977942 71.22868169 66.3515625 79.8359375 C57.36118613 88.53275056 45.76509601 90.33710874 33.703125 90.2109375 C23.40990741 89.62461498 14.26845983 86.77831079 7.18359375 79.0078125 C1.46503223 71.70458935 -0.13236589 64.85928537 -0.11352539 55.62744141 C-0.11344986 54.38660797 -0.11337433 53.14577454 -0.11329651 51.86734009 C-0.10819113 50.52874714 -0.10297515 49.19015461 -0.09765625 47.8515625 C-0.09578906 46.47008312 -0.09436658 45.08860308 -0.09336853 43.7071228 C-0.08956702 40.08711897 -0.07975716 36.46715583 -0.06866455 32.84716797 C-0.05839935 29.14681549 -0.05386 25.44645639 -0.04882812 21.74609375 C-0.03813257 14.49737521 -0.02055516 7.24869851 0 0 Z " fill="#F8FCFD" transform="translate(247,663)"/>
<path d="M0 0 C22.44 0 44.88 0 68 0 C68 5.61 68 11.22 68 17 C60.08 17 52.16 17 44 17 C44 40.43 44 63.86 44 88 C37.4 88 30.8 88 24 88 C24 64.57 24 41.14 24 17 C16.08 17 8.16 17 0 17 C0 11.39 0 5.78 0 0 Z " fill="#F2F9FC" transform="translate(684,663)"/>
<path d="M0 0 C6.27 0 12.54 0 19 0 C19 23.76 19 47.52 19 72 C30.88 72 42.76 72 55 72 C55 77.28 55 82.56 55 88 C36.85 88 18.7 88 0 88 C0 58.96 0 29.92 0 0 Z " fill="#FBFDFE" transform="translate(424,663)"/>
<path d="M0 0 C6.21434909 2.83982683 9.80388946 7.61497807 12.73046875 13.62109375 C16.51700089 23.85245814 15.52382052 35.61332207 11.29296875 45.5 C11.00421875 46.09683594 10.71546875 46.69367187 10.41796875 47.30859375 C6.82884463 47.30859375 6.30939846 46.64422821 3.73046875 44.30859375 C3.10785156 43.75171875 2.48523438 43.19484375 1.84375 42.62109375 C1.37324219 42.18796875 0.90273437 41.75484375 0.41796875 41.30859375 C-2.79247007 42.69047828 -4.6313949 44.23281278 -6.83203125 46.93359375 C-7.3528125 47.56523438 -7.87359375 48.196875 -8.41015625 48.84765625 C-8.796875 49.32976563 -9.18359375 49.811875 -9.58203125 50.30859375 C-8.958125 50.60765625 -8.33421875 50.90671875 -7.69140625 51.21484375 C-5.51220219 52.34480141 -4.14841597 53.42893209 -2.58203125 55.30859375 C-2.58203125 55.96859375 -2.58203125 56.62859375 -2.58203125 57.30859375 C-4.95828302 57.41742971 -7.32947101 57.49626071 -9.70703125 57.55859375 C-10.3721875 57.59210937 -11.03734375 57.625625 -11.72265625 57.66015625 C-17.78666244 57.77905833 -20.98588786 55.63324502 -25.375 51.703125 C-33.29521546 42.71800662 -33.34321467 32.79750504 -32.74169922 21.32128906 C-32.10288264 13.26868375 -28.53266616 7.67630932 -22.58203125 2.30859375 C-16.3460504 -2.36034199 -7.32761738 -1.96216078 0 0 Z " fill="#038AD2" transform="translate(200.58203125,678.69140625)"/>
<path d="M0 0 C6.6 0 13.2 0 20 0 C20 29.04 20 58.08 20 88 C13.4 88 6.8 88 0 88 C0 58.96 0 29.92 0 0 Z " fill="#F2F9FC" transform="translate(493,663)"/>
<path d="M0 0 C5.754375 -0.12375 5.754375 -0.12375 11.625 -0.25 C12.82334473 -0.28641602 14.02168945 -0.32283203 15.25634766 -0.36035156 C21.48173196 -0.42516665 25.34118569 -0.30282518 30 4 C32.83160532 8.24740799 32.64522317 12.01346043 32 17 C29.66125855 21.15776258 27.44238797 22.5404902 23 24 C20.32104492 24.22705078 20.32104492 24.22705078 17.48046875 24.1953125 C16.55903076 24.19031738 15.63759277 24.18532227 14.68823242 24.18017578 C13.53299072 24.16196777 12.37774902 24.14375977 11.1875 24.125 C5.6496875 24.063125 5.6496875 24.063125 0 24 C0 16.08 0 8.16 0 0 Z " fill="#048AD2" transform="translate(550,712)"/>
<path d="M0 0 C3.54249117 -0.10825949 7.08165249 -0.18744405 10.625 -0.25 C11.62402344 -0.28351562 12.62304688 -0.31703125 13.65234375 -0.3515625 C19.7832342 -0.43276635 23.37324029 -0.16258641 28 4 C30.50339933 7.75509899 30.19324894 9.51938296 29.6171875 13.83984375 C28.68452162 17.10417432 26.85650478 18.32789964 24 20 C21.49502996 21.25248502 19.79146726 21.11374406 16.9921875 21.09765625 C16.00605469 21.09443359 15.01992188 21.09121094 14.00390625 21.08789062 C12.97136719 21.07951172 11.93882812 21.07113281 10.875 21.0625 C9.31458984 21.05573242 9.31458984 21.05573242 7.72265625 21.04882812 C5.14841313 21.03701967 2.57419947 21.01908385 0 21 C0 14.07 0 7.14 0 0 Z " fill="#0F8ED4" transform="translate(549,678)"/>
<path d="M0 0 C3.18375844 1.63736148 5.21427638 3.96427342 7.375 6.8125 C8.82134634 11.87471219 8.68806738 15.62386525 6.375 20.25 C3.02738591 24.12618473 0.1394901 26.64341832 -5 27.5 C-9.67963708 26.72006049 -12.71247299 24.46511694 -15.8125 20.9375 C-18.23959201 16.97750777 -18.38595477 13.55426632 -18 9 C-13.69061294 0.9968526 -8.90015303 -1.5161144 0 0 Z " fill="#058AD2" transform="translate(201,800)"/>
<path d="M0 0 C0.66 0 1.32 0 2 0 C2 11.88 2 23.76 2 36 C1.34 36 0.68 36 0 36 C0 35.34 0 34.68 0 34 C-0.99 34.66 -1.98 35.32 -3 36 C-7.47208083 36.72022276 -10.98669453 36.58211165 -14.9375 34.3125 C-18.86948533 29.90391039 -19.40290234 25.9013882 -19.25 20.1484375 C-18.75916817 15.9303515 -16.97429216 13.78484647 -13.75 11.1875 C-10.27252389 9.68586259 -7.75617244 9.65852978 -4 10 C-2.68 10.66 -1.36 11.32 0 12 C0 8.04 0 4.08 0 0 Z " fill="#098BD2" transform="translate(490,790)"/>
<path d="M0 0 C4.51315789 2.02631579 4.51315789 2.02631579 6 5 C6.08400529 6.59447464 6.10727467 8.19240545 6.09765625 9.7890625 C6.09443359 10.73007812 6.09121094 11.67109375 6.08789062 12.640625 C6.07951172 13.62546875 6.07113281 14.6103125 6.0625 15.625 C6.05798828 16.61757813 6.05347656 17.61015625 6.04882812 18.6328125 C6.03702145 21.0886016 6.020554 23.54427104 6 26 C5.34 26 4.68 26 4 26 C4 25.34 4 24.68 4 24 C2.7934375 24.7734375 2.7934375 24.7734375 1.5625 25.5625 C-2.99032916 27.3996065 -6.30067476 27.2840661 -11 26 C-13.5625 24.4375 -13.5625 24.4375 -15 22 C-15.78318282 17.06594824 -15.78318282 17.06594824 -15 14 C-12.34287908 10.72969733 -10.86334928 9.27253068 -6.703125 8.6640625 C-3.15084302 8.60601868 -0.38764047 8.87078651 3 10 C2.39816251 7.97954558 1.72693904 5.97888961 1 4 C-2.73974432 2.13012784 -7.46790828 2.69358166 -11.5 3.5 C-11.995 3.665 -12.49 3.83 -13 4 C-12.67 3.01 -12.34 2.02 -12 1 C-8.31833802 -0.84083099 -4.02754194 -0.36729156 0 0 Z " fill="#DDEFF8" transform="translate(349,800)"/>
<path d="M0 0 C0.94488281 -0.03738281 1.88976562 -0.07476563 2.86328125 -0.11328125 C6.78174212 0.47746873 8.17613955 1.19823172 10.6875 4.3125 C11.30246138 8.07957114 11.15688206 11.75871337 11 15.5625 C10.97744141 16.59375 10.95488281 17.625 10.93164062 18.6875 C10.87277163 21.23064065 10.79060065 23.77083113 10.6875 26.3125 C10.0275 26.3125 9.3675 26.3125 8.6875 26.3125 C8.6875 25.6525 8.6875 24.9925 8.6875 24.3125 C7.82125 24.8075 6.955 25.3025 6.0625 25.8125 C2.44277463 27.42126683 0.58401898 27.88074235 -3.3125 27.3125 C-8.89144737 24.15460526 -8.89144737 24.15460526 -10.3125 21.3125 C-10.75 18 -10.75 18 -10.3125 14.3125 C-7.59111105 10.94657156 -6.07055082 9.57416338 -1.79296875 8.9375 C2.60931154 8.83437191 4.94400273 8.81683516 8.6875 11.3125 C7.41803486 6.48807816 7.41803486 6.48807816 3.6875 3.3125 C-0.48550608 3.08066633 -4.25270228 3.32830661 -8.3125 4.3125 C-7.9825 3.3225 -7.6525 2.3325 -7.3125 1.3125 C-4.76895023 0.04072512 -2.84084848 0.07303941 0 0 Z " fill="#E1F1F9" transform="translate(597.3125,799.6875)"/>
<path d="M0 0 C4.18587144 1.7289469 6.17315321 3.86555726 8 8 C8 9.98 8 11.96 8 14 C0.74 14 -6.52 14 -14 14 C-11.84261159 20.56564965 -11.84261159 20.56564965 -9.1875 22.4375 C-4.00263803 23.77075022 0.06945583 22.87830254 5 21 C3.25 24.875 3.25 24.875 1 26 C-3.05380289 26.51037087 -7.1774658 26.89274541 -10.921875 25.05859375 C-14.14219063 22.51581978 -16.05573421 19.96591631 -17 16 C-17.46725516 11.71682772 -17.30749558 9.57106322 -15.25 5.75 C-10.60692672 0.07513266 -7.2503448 -0.94682499 0 0 Z " fill="#E3F2FA" transform="translate(281,800)"/>
<path d="M0 0 C4.18587144 1.7289469 6.17315321 3.86555726 8 8 C8 9.98 8 11.96 8 14 C0.74 14 -6.52 14 -14 14 C-11.81940167 20.84825895 -11.81940167 20.84825895 -8 23 C-3.17425558 23.36420713 0.50316286 22.75486327 5 21 C3.25 24.875 3.25 24.875 1 26 C-3.05380289 26.51037087 -7.1774658 26.89274541 -10.921875 25.05859375 C-14.14219063 22.51581978 -16.05573421 19.96591631 -17 16 C-17.46725516 11.71682772 -17.30749558 9.57106322 -15.25 5.75 C-10.60692672 0.07513266 -7.2503448 -0.94682499 0 0 Z " fill="#E4F2FA" transform="translate(418,800)"/>
<path d="M0 0 C3.66365969 1.59289552 6.123479 3.44448653 8 7 C8 9.31 8 11.62 8 14 C1.07 14 -5.86 14 -13 14 C-10.81940167 20.84825895 -10.81940167 20.84825895 -7 23 C-4.83918944 23.06287583 -4.83918944 23.06287583 -2.5625 22.6875 C-1.80066406 22.58824219 -1.03882813 22.48898437 -0.25390625 22.38671875 C1.86675775 22.02286132 3.92171163 21.55389462 6 21 C5 24 5 24 3.24609375 25.16015625 C-0.78848845 26.66873916 -4.77141952 26.67849184 -9 26 C-12.90392754 23.07205435 -15.57122365 19.74217432 -16.3359375 14.8515625 C-16.43177417 9.38887247 -15.67758174 6.30802432 -12 2 C-7.9556813 -0.69621247 -4.74665346 -0.54319098 0 0 Z " fill="#EBF5FB" transform="translate(744,800)"/>
<path d="M0 0 C3.66365969 1.59289552 6.123479 3.44448653 8 7 C8 9.31 8 11.62 8 14 C1.07 14 -5.86 14 -13 14 C-10.81940167 20.84825895 -10.81940167 20.84825895 -7 23 C-4.83918944 23.06287583 -4.83918944 23.06287583 -2.5625 22.6875 C-1.80066406 22.58824219 -1.03882813 22.48898437 -0.25390625 22.38671875 C1.86675775 22.02286132 3.92171163 21.55389462 6 21 C5 24 5 24 3.24609375 25.16015625 C-0.78578475 26.66772821 -4.77453251 26.68484076 -9 26 C-12.46013621 23.33281167 -15.67259944 20.21185727 -16.3359375 15.73046875 C-16.42468004 9.95332931 -15.96380815 6.53006645 -12 2 C-7.9556813 -0.69621247 -4.74665346 -0.54319098 0 0 Z " fill="#EEF7FB" transform="translate(521,800)"/>
<path d="M0 0 C2.60575794 3.10641949 3.83512124 5.96733166 5.04296875 9.82421875 C5.39423828 10.93474609 5.74550781 12.04527344 6.10742188 13.18945312 C6.64206055 14.92098633 6.64206055 14.92098633 7.1875 16.6875 C7.55552734 17.85345703 7.92355469 19.01941406 8.30273438 20.22070312 C11 28.81292034 11 28.81292034 11 30 C4.07 30 -2.86 30 -10 30 C-8.3521114 22.76760004 -6.34341531 15.79945798 -3.875 8.8125 C-3.60929199 8.05783447 -3.34358398 7.30316895 -3.06982422 6.52563477 C-1.13407618 1.13407618 -1.13407618 1.13407618 0 0 Z " fill="#098BD2" transform="translate(648,682)"/>
<path d="M0 0 C0.66 0 1.32 0 2 0 C11 24.60245902 11 24.60245902 11 30 C4.4 30 -2.2 30 -9 30 C-8.30975861 25.16831025 -7.72749693 21.7105866 -6.15234375 17.28515625 C-5.61577148 15.76245117 -5.61577148 15.76245117 -5.06835938 14.20898438 C-4.50858398 12.65147461 -4.50858398 12.65147461 -3.9375 11.0625 C-3.56044922 9.99708984 -3.18339844 8.93167969 -2.79492188 7.83398438 C-1.86907983 5.22053151 -0.93730537 2.60935879 0 0 Z " fill="#088BD2" transform="translate(369,682)"/>
<path d="M0 0 C5.27891087 5.03896037 7.05873972 9.90246533 7.3125 17.1875 C7.36957753 20.04576704 7.39738191 21.45583739 5.69921875 23.78125 C2.89836832 25.79013583 0.32466181 25.2968448 -3 25 C-6 23 -6 23 -6.94921875 19.953125 C-7.19285156 18.73109375 -7.43648437 17.5090625 -7.6875 16.25 C-7.93886719 15.03828125 -8.19023437 13.8265625 -8.44921875 12.578125 C-9.73501303 4.22502172 -9.73501303 4.22502172 -7.875 1.125 C-4.99171297 -0.60497222 -3.29989169 -0.5939805 0 0 Z " fill="#F6F5F9" transform="translate(192,109)"/>
<path d="M0 0 C0.99 0 1.98 0 3 0 C3.33 3.63 3.66 7.26 4 11 C4.66 10.67 5.32 10.34 6 10 C10.65812761 9.53418724 13.63818242 9.24950115 17.375 12.25 C20.77002181 15.80668952 21.81366631 17.38510801 22.375 22.25 C21.92634973 26.7365027 20.70902257 30.36288636 18 34 C15.07867941 35.92905769 12.83503504 36.22914821 9.375 36.125 C8.59898437 36.10695313 7.82296875 36.08890625 7.0234375 36.0703125 C6.35570312 36.04710937 5.68796875 36.02390625 5 36 C4.34 36 3.68 36 3 36 C2.01 36 1.02 36 0 36 C0 24.12 0 12.24 0 0 Z M3 15 C2.77447762 17.69162425 2.6756671 20.24669744 2.6875 22.9375 C2.67138672 23.66646484 2.65527344 24.39542969 2.63867188 25.14648438 C2.61953829 29.30125393 2.61953829 29.30125393 4.33984375 32.98046875 C6.9856222 34.60528798 8.96408022 34.36431037 12 34 C14.74039337 32.75436665 16.4643868 31.68864555 18.3125 29.3125 C19.56134089 25.11185336 19.95432994 21.1958854 18.1953125 17.1484375 C16.45360663 14.61395516 14.77127433 13.14893573 11.734375 12.5625 C6.84744549 12.33169426 6.84744549 12.33169426 3 15 Z " fill="#DEEFF8" transform="translate(622,790)"/>
<path d="M0 0 C0.99 0 1.98 0 3 0 C3.33 3.63 3.66 7.26 4 11 C4.33 10.67 4.66 10.34 5 10 C9.55543464 9.42586464 12.97819891 9.36952699 16.9375 11.8125 C21.2312291 16.36645511 21.37296497 19.31950343 21.25390625 25.3359375 C20.84477983 29.6286178 19.15581615 31.71082045 16.375 34.8125 C12.73744757 36.63127622 8.9941544 36.56639022 5 36 C4.01 35.34 3.02 34.68 2 34 C2 34.66 2 35.32 2 36 C1.34 36 0.68 36 0 36 C0 24.12 0 12.24 0 0 Z M3 14 C2.91910458 16.77141717 2.85955938 19.54047819 2.8125 22.3125 C2.78736328 23.09818359 2.76222656 23.88386719 2.73632812 24.69335938 C2.72666016 25.45068359 2.71699219 26.20800781 2.70703125 26.98828125 C2.6913208 27.68477783 2.67561035 28.38127441 2.65942383 29.09887695 C3.10781154 31.60181254 4.01027453 32.46279127 6 34 C10.06207554 34.72214676 11.72916863 34.1584108 15.3125 32.0625 C18.40716659 29.18829778 19.02904535 26.35865113 19.25 22.22265625 C18.81243402 18.33242119 16.70325563 15.70325563 14 13 C12.52351124 12.90176004 11.04224583 12.87026481 9.5625 12.875 C8.75941406 12.87242187 7.95632813 12.86984375 7.12890625 12.8671875 C4.94602069 12.86421674 4.94602069 12.86421674 3 14 Z " fill="#E0F1F9" transform="translate(369,790)"/>
<path d="M0 0 C0 0.99 0 1.98 0 3 C-1.32 3 -2.64 3 -4 3 C-4.33 5.31 -4.66 7.62 -5 10 C-0.38 10 4.24 10 9 10 C9 18.58 9 27.16 9 36 C8.01 36 7.02 36 6 36 C6 28.08 6 20.16 6 12 C2.37 12 -1.26 12 -5 12 C-5 19.92 -5 27.84 -5 36 C-5.99 36 -6.98 36 -8 36 C-8 28.08 -8 20.16 -8 12 C-8.66 12 -9.32 12 -10 12 C-10 11.34 -10 10.68 -10 10 C-9.34 10 -8.68 10 -8 10 C-8.0825 9.0925 -8.165 8.185 -8.25 7.25 C-8 4 -8 4 -6.25 1.625 C-4 0 -4 0 0 0 Z " fill="#E1F1F9" transform="translate(566,790)"/>
<path d="M0 0 C0.99 0 1.98 0 3 0 C6.63 10.23 10.26 20.46 14 31 C16.07869528 27.88195708 17.13755549 25.11025943 18.3828125 21.58203125 C18.60194305 20.96478683 18.82107361 20.34754242 19.04684448 19.71159363 C19.74345193 17.74657972 20.43429372 15.77959496 21.125 13.8125 C21.59727699 12.47707935 22.06992899 11.14179127 22.54296875 9.80664062 C23.69966237 6.53928541 24.85119497 3.2701384 26 0 C26.99 0 27.98 0 29 0 C26.05305639 12.23683251 21.81027238 24.36919215 17 36 C15.35 36 13.7 36 12 36 C10.28701983 31.19591067 8.57812811 26.39039462 6.87304688 21.58349609 C6.29214466 19.94767805 5.71011753 18.31225904 5.12695312 16.67724609 C4.29002148 14.33013676 3.45711573 11.98163282 2.625 9.6328125 C2.36251465 8.89942657 2.1000293 8.16604065 1.82958984 7.41043091 C0 2.22774341 0 2.22774341 0 0 Z " fill="#E5F3FA" transform="translate(148,790)"/>
<path d="M0 0 C0.66 0 1.32 0 2 0 C2 11.88 2 23.76 2 36 C1.34 36 0.68 36 0 36 C0 35.34 0 34.68 0 34 C-0.99 34.66 -1.98 35.32 -3 36 C-7.47208083 36.72022276 -10.98669453 36.58211165 -14.9375 34.3125 C-18.86948533 29.90391039 -19.40290234 25.9013882 -19.25 20.1484375 C-18.75916817 15.9303515 -16.97429216 13.78484647 -13.75 11.1875 C-10.27252389 9.68586259 -7.75617244 9.65852978 -4 10 C-2.68 10.66 -1.36 11.32 0 12 C0 8.04 0 4.08 0 0 Z M-14.0625 14.875 C-16.78125657 19.26009125 -16.91757377 22.96574393 -16 28 C-14.20353146 30.93423195 -13.0558929 32.47205355 -10 34 C-6.87620685 34.27163419 -4.69301617 34.32282588 -1.828125 32.98828125 C0.94469414 29.97254419 0.5052337 26.81366631 0.375 22.9375 C0.37306641 21.83825195 0.37306641 21.83825195 0.37109375 20.71679688 C0.4237 16.39167982 0.4237 16.39167982 -2 13 C-6.60625691 12.14028604 -10.0559189 12.42199116 -14.0625 14.875 Z " fill="#FAFDFE" transform="translate(490,790)"/>
<path d="M0 0 C3.18375844 1.63736148 5.21427638 3.96427342 7.375 6.8125 C8.82134634 11.87471219 8.68806738 15.62386525 6.375 20.25 C3.02738591 24.12618473 0.1394901 26.64341832 -5 27.5 C-9.67963708 26.72006049 -12.71247299 24.46511694 -15.8125 20.9375 C-18.23959201 16.97750777 -18.38595477 13.55426632 -18 9 C-13.69061294 0.9968526 -8.90015303 -1.5161144 0 0 Z M-12.4375 5 C-14.48940156 7.71026569 -15.42008521 9.71999195 -15.5625 13.125 C-15.00386562 16.97337018 -14.39544421 18.9835147 -12 22 C-8.33091443 24.44605705 -5.26381231 24.83946402 -1 24 C2.1924319 21.41888485 4.69886044 19.18971477 5.2734375 15.01171875 C5.46972622 10.51972685 5.51482633 8.65030695 2.625 5 C-2.49332468 1.10032405 -7.65326584 -0.00014972 -12.4375 5 Z " fill="#DFF0F9" transform="translate(201,800)"/>
<path d="M0 0 C1.45599609 0.02320313 1.45599609 0.02320313 2.94140625 0.046875 C5.4375 0.25 5.4375 0.25 7.4375 1.25 C7.67147834 4.10453575 7.86218097 6.453724 7.4375 9.25 C4.66366877 12.02383123 2.09962308 12.44332989 -1.6875 12.625 C-5.5625 12.25 -5.5625 12.25 -7.5625 11.125 C-9.04151666 8.35184376 -8.94851984 6.33815875 -8.5625 3.25 C-6.16916146 -0.15315247 -3.99671121 -0.10643705 0 0 Z " fill="#0789D2" transform="translate(598.5625,811.75)"/>
<path d="M0 0 C1.31677734 0.00966797 1.31677734 0.00966797 2.66015625 0.01953125 C4.9375 0.1875 4.9375 0.1875 6.9375 1.1875 C6.9375 4.1575 6.9375 7.1275 6.9375 10.1875 C2.56446284 12.37401858 -0.28297388 12.96942656 -5.0625 12.1875 C-7.625 10.5625 -7.625 10.5625 -9.0625 8.1875 C-9 5.0625 -9 5.0625 -8.0625 2.1875 C-4.79122414 0.00664943 -3.78873277 -0.06137859 0 0 Z " fill="#0689D1" transform="translate(345.0625,811.8125)"/>
<path d="M0 0 C3.49406769 1.66762322 4.82670681 2.74006022 7 6 C7 7.32 7 8.64 7 10 C0.4 10 -6.2 10 -13 10 C-10.58606217 2.7581865 -8.08570194 -1.17916487 0 0 Z " fill="#168FD4" transform="translate(520,802)"/>
<path d="M0 0 C3.37558704 0.58974482 4.33191085 1.02733004 6.9375 3.4375 C8.4375 6.125 8.4375 6.125 9.4375 10.125 C2.8375 10.125 -3.7625 10.125 -10.5625 10.125 C-9.26052655 3.61513275 -7.0909409 -0.42055004 0 0 Z " fill="#1790D4" transform="translate(414.5625,801.875)"/>
<path d="M0 0 C2.91886767 1.32675803 4.54978393 2.31395647 6.3125 5 C7 7 7 7 7 10 C0.4 10 -6.2 10 -13 10 C-10.58606217 2.7581865 -8.08570194 -1.17916487 0 0 Z " fill="#138FD4" transform="translate(743,802)"/>
<path d="M0 0 C4.09538479 0.65818684 5.74126252 1.47920517 8.5 4.5625 C8.83 6.5425 9.16 8.5225 9.5 10.5625 C3.23 10.5625 -3.04 10.5625 -9.5 10.5625 C-8.25747197 4.34985983 -6.53271106 1.04989999 0 0 Z " fill="#158FD4" transform="translate(276.5,801.4375)"/>
<path d="M0 0 C0.66 0 1.32 0 2 0 C2 2.31 2 4.62 2 7 C3.65 7 5.3 7 7 7 C7 7.66 7 8.32 7 9 C5.35 9 3.7 9 2 9 C2.33 15.93 2.66 22.86 3 30 C4.32 30.33 5.64 30.66 7 31 C7 31.66 7 32.32 7 33 C4.125 32.6875 4.125 32.6875 1 32 C-1.13604308 28.79593538 -1.24208908 28.00399253 -1.1953125 24.33203125 C-1.18886719 23.43935547 -1.18242188 22.54667969 -1.17578125 21.62695312 C-1.15902344 20.69818359 -1.14226563 19.76941406 -1.125 18.8125 C-1.11597656 17.87212891 -1.10695313 16.93175781 -1.09765625 15.96289062 C-1.07409056 13.64167032 -1.04119116 11.32096356 -1 9 C-2.32 9 -3.64 9 -5 9 C-5 8.34 -5 7.68 -5 7 C-3.68 7 -2.36 7 -1 7 C-1.020625 6.030625 -1.04125 5.06125 -1.0625 4.0625 C-1 1 -1 1 0 0 Z " fill="#D3EAF7" transform="translate(710,793)"/>
<path d="M0 0 C0.99 0 1.98 0 3 0 C3.01458252 0.95890137 3.02916504 1.91780273 3.04418945 2.90576172 C3.10209507 6.4582274 3.17932671 10.01005398 3.26245117 13.56201172 C3.2957373 15.10031779 3.32375778 16.63874707 3.34643555 18.17724609 C3.37991558 20.38692818 3.4322231 22.59547735 3.48828125 24.8046875 C3.49467117 25.49432587 3.5010611 26.18396423 3.50764465 26.89450073 C3.54025714 29.04685389 3.54025714 29.04685389 4 32 C4.99 32.66 5.98 33.32 7 34 C7 34.66 7 35.32 7 36 C4.625 35.6875 4.625 35.6875 2 35 C-0.39629455 31.40555817 -0.25781331 28.85138348 -0.1953125 24.70703125 C-0.1924826 24.00100266 -0.18965271 23.29497406 -0.18673706 22.56755066 C-0.17555464 20.31569367 -0.1504542 18.06423648 -0.125 15.8125 C-0.11496767 14.28451096 -0.10584226 12.75651567 -0.09765625 11.22851562 C-0.07562172 7.48552337 -0.04110567 3.74282944 0 0 Z " fill="#DEEFF8" transform="translate(673,790)"/>
<path d="M0 0 C0.99 0 1.98 0 3 0 C3.01458252 0.95890137 3.02916504 1.91780273 3.04418945 2.90576172 C3.10209507 6.4582274 3.17932671 10.01005398 3.26245117 13.56201172 C3.2957373 15.10031779 3.32375778 16.63874707 3.34643555 18.17724609 C3.37991558 20.38692818 3.4322231 22.59547735 3.48828125 24.8046875 C3.49467117 25.49432587 3.5010611 26.18396423 3.50764465 26.89450073 C3.54025714 29.04685389 3.54025714 29.04685389 4 32 C4.99 32.66 5.98 33.32 7 34 C7 34.66 7 35.32 7 36 C4.625 35.6875 4.625 35.6875 2 35 C-0.39629455 31.40555817 -0.25781331 28.85138348 -0.1953125 24.70703125 C-0.1924826 24.00100266 -0.18965271 23.29497406 -0.18673706 22.56755066 C-0.17555464 20.31569367 -0.1504542 18.06423648 -0.125 15.8125 C-0.11496767 14.28451096 -0.10584226 12.75651567 -0.09765625 11.22851562 C-0.07562172 7.48552337 -0.04110567 3.74282944 0 0 Z " fill="#E0F0F9" transform="translate(438,790)"/>
<path d="M0 0 C0.66 0 1.32 0 2 0 C2 2.31 2 4.62 2 7 C3.65 7 5.3 7 7 7 C7 7.66 7 8.32 7 9 C5.35 9 3.7 9 2 9 C2.05184083 12.10553392 2.1468995 15.20827831 2.25 18.3125 C2.26417969 19.19357422 2.27835938 20.07464844 2.29296875 20.98242188 C2.30014929 26.03427266 2.30014929 26.03427266 5.046875 29.98046875 C6.01367188 30.48513672 6.01367188 30.48513672 7 31 C7 31.66 7 32.32 7 33 C2.25 32.25 2.25 32.25 0 30 C-0.22705078 27.84521484 -0.22705078 27.84521484 -0.1953125 25.2109375 C-0.18886719 24.26992188 -0.18242187 23.32890625 -0.17578125 22.359375 C-0.15902344 21.37453125 -0.14226562 20.3896875 -0.125 19.375 C-0.11597656 18.38242187 -0.10695312 17.38984375 -0.09765625 16.3671875 C-0.07404116 13.91121866 -0.04110799 11.45572832 0 9 C-1.32 9 -2.64 9 -4 9 C-4 8.34 -4 7.68 -4 7 C-3.01 7 -2.02 7 -1 7 C-1.020625 6.030625 -1.04125 5.06125 -1.0625 4.0625 C-1 1 -1 1 0 0 Z " fill="#EEF7FC" transform="translate(222,793)"/>
<path d="M0 0 C2.24658203 -0.34057617 2.24658203 -0.34057617 5.0078125 -0.29296875 C5.99394531 -0.28330078 6.98007812 -0.27363281 7.99609375 -0.26367188 C9.02863281 -0.23853516 10.06117188 -0.21339844 11.125 -0.1875 C12.68541016 -0.16719727 12.68541016 -0.16719727 14.27734375 -0.14648438 C16.85207627 -0.11105228 19.4257833 -0.06165221 22 0 C22 0.33 22 0.66 22 1 C15.07 1 8.14 1 1 1 C3.18059833 7.84825895 3.18059833 7.84825895 7 10 C9.16081056 10.06287583 9.16081056 10.06287583 11.4375 9.6875 C12.58025391 9.53861328 12.58025391 9.53861328 13.74609375 9.38671875 C15.86675775 9.02286132 17.92171163 8.55389462 20 8 C19 11 19 11 17.24609375 12.16015625 C13.20880379 13.66975163 9.23167786 13.67213036 5 13 C1.30670162 10.30696993 -0.93679182 7.48910121 -2 3 C-1.34 2.01 -0.68 1.02 0 0 Z " fill="#D4EBF7" transform="translate(507,813)"/>
<path d="M0 0 C7.26 0 14.52 0 22 0 C22 0.33 22 0.66 22 1 C15.07 1 8.14 1 1 1 C3.18059833 7.84825895 3.18059833 7.84825895 7 10 C9.16081056 10.06287583 9.16081056 10.06287583 11.4375 9.6875 C12.58025391 9.53861328 12.58025391 9.53861328 13.74609375 9.38671875 C15.86675775 9.02286132 17.92171163 8.55389462 20 8 C19 11 19 11 17.24609375 12.16015625 C13.20825925 13.66995524 9.23219514 13.6711248 5 13 C1.74538952 10.67527823 0.38454975 9.15364925 -0.875 5.375 C-1 3 -1 3 0 0 Z " fill="#D7ECF8" transform="translate(730,813)"/>
<path d="M0 0 C0.66 0 1.32 0 2 0 C2.33 0.66 2.66 1.32 3 2 C3.66 1.34 4.32 0.68 5 0 C7.1640625 -0.1953125 7.1640625 -0.1953125 9.625 -0.125 C10.85089844 -0.09792969 10.85089844 -0.09792969 12.1015625 -0.0703125 C13.04128906 -0.03550781 13.04128906 -0.03550781 14 0 C14 0.99 14 1.98 14 3 C12.9275 2.9175 11.855 2.835 10.75 2.75 C7.0944438 2.69010694 7.0944438 2.69010694 4.8125 4.40625 C2.07752637 8.32009157 2.32590159 12.07860229 2.25 16.75 C2.22035156 17.63816406 2.19070312 18.52632812 2.16015625 19.44140625 C2.08963082 21.62769449 2.03685363 23.81292768 2 26 C1.34 26 0.68 26 0 26 C0 17.42 0 8.84 0 0 Z " fill="#F5FAFD" transform="translate(242,800)"/>
<path d="M0 0 C0.33 1.32 0.66 2.64 1 4 C0.34 4 -0.32 4 -1 4 C-1.33 4.66 -1.66 5.32 -2 6 C-2.68707031 5.96519531 -3.37414062 5.93039062 -4.08203125 5.89453125 C-5.43361328 5.85392578 -5.43361328 5.85392578 -6.8125 5.8125 C-8.15248047 5.76029297 -8.15248047 5.76029297 -9.51953125 5.70703125 C-12.04209994 5.79777387 -12.04209994 5.79777387 -13.8359375 7.3515625 C-15.27155963 9.014361 -15.27155963 9.014361 -14.8125 11.5625 C-14.15372967 14.14441272 -14.15372967 14.14441272 -12 16 C-12 16.99 -12 17.98 -12 19 C-14.46800047 17.84826645 -16.04783565 16.95216435 -18 15 C-18.40463534 11.91465557 -18.6285158 9.96138528 -18 7 C-15.34287908 3.72969733 -13.86334928 2.27253068 -9.703125 1.6640625 C-6.15084302 1.60601868 -3.38764047 1.87078651 0 3 C0 2.01 0 1.02 0 0 Z " fill="#E8F4FA" transform="translate(352,807)"/>
<path d="M0 0 C0.66 0 1.32 0 2 0 C2.01458252 0.92337158 2.02916504 1.84674316 2.04418945 2.7980957 C2.10526308 6.22577204 2.1794161 9.65264662 2.26245117 13.07983398 C2.29569423 14.56279854 2.32372823 16.04588944 2.34643555 17.52905273 C2.37999468 19.66184293 2.43230638 21.79347612 2.48828125 23.92578125 C2.51446533 25.20880127 2.54064941 26.49182129 2.56762695 27.8137207 C3.02659066 31.19595409 3.43925431 31.93666841 6 34 C6 34.66 6 35.32 6 36 C3.5625 35.625 3.5625 35.625 1 35 C-0.50606515 31.98786971 -0.12160331 28.88717378 -0.09765625 25.5859375 C-0.0962413 24.85629791 -0.09482635 24.12665833 -0.09336853 23.37490845 C-0.08776531 21.04156415 -0.07521235 18.70831536 -0.0625 16.375 C-0.05748541 14.79427222 -0.05292243 13.21354293 -0.04882812 11.6328125 C-0.03779484 7.75517146 -0.02052811 3.87760193 0 0 Z " fill="#F9FCFD" transform="translate(317,790)"/>
<path d="M0 0 C0.99 0 1.98 0 3 0 C3 8.58 3 17.16 3 26 C2.01 26 1.02 26 0 26 C0 17.42 0 8.84 0 0 Z " fill="#DBEEF8" transform="translate(692,800)"/>
<path d="M0 0 C0.99 0 1.98 0 3 0 C3 8.58 3 17.16 3 26 C2.01 26 1.02 26 0 26 C0 17.42 0 8.84 0 0 Z " fill="#DAEEF8" transform="translate(656,800)"/>
<path d="M0 0 C3.16115776 1.36983503 3.9927092 1.9890638 6 5 C6.57848123 9.85323218 6.64024604 14.4634095 4.75 19 C2.9640718 21.0410608 1.31318226 22.58224313 -1 24 C-1.66 24 -2.32 24 -3 24 C-3 23.01 -3 22.02 -3 21 C-2.195625 20.46375 -1.39125 19.9275 -0.5625 19.375 C2.67726205 16.37229371 2.87789559 14.46920738 3.15234375 10.18359375 C2.94364867 7.19229755 1.75308081 5.3841899 0 3 C0 2.01 0 1.02 0 0 Z " fill="#E5F3FA" transform="translate(384,802)"/>
<path d="M0 0 C4.51315789 2.02631579 4.51315789 2.02631579 6 5 C6.23333333 11.53333333 6.23333333 11.53333333 5 14 C4.01 13.67 3.02 13.34 2 13 C2 12.34 2 11.68 2 11 C2.66 11 3.32 11 4 11 C2.47444034 6.18877153 2.47444034 6.18877153 -1 3 C-7.08516056 2.76666713 -7.08516056 2.76666713 -13 4 C-12.67 3.01 -12.34 2.02 -12 1 C-8.31833802 -0.84083099 -4.02754194 -0.36729156 0 0 Z " fill="#EAF5FB" transform="translate(349,800)"/>
<path d="M0 0 C7.76785714 -0.66964286 7.76785714 -0.66964286 11.375 2.25 C15.00233553 6.05006579 15.94883656 7.46509686 16.125 12.75 C16.08375 13.8225 16.0425 14.895 16 16 C15.01 15.67 14.02 15.34 13 15 C12.375 13.2578125 12.375 13.2578125 12 11.125 C11.4724679 8.76587645 11.081997 7.13378458 9.8125 5.0625 C7.01973748 3.42536335 4.18017159 3.30001619 1 3 C0.67 2.01 0.34 1.02 0 0 Z " fill="#D2E9F6" transform="translate(628,800)"/>
<path d="M0 0 C0.66 0.66 1.32 1.32 2 2 C-0.03526279 4.03526279 -3.89274206 3.86791601 -6.65234375 4.3046875 C-9.34982523 4.83111044 -9.34982523 4.83111044 -11 8 C-11.45139459 10.0492094 -11.45139459 10.0492094 -11.625 12.1875 C-11.74875 13.445625 -11.8725 14.70375 -12 16 C-14.32292108 13.58416208 -15 12.46941344 -15 9.0625 C-13.76475684 5.27956783 -12.00013055 3.56108705 -9 1 C-5.98675805 -0.50662097 -3.31713623 -0.17770373 0 0 Z " fill="#D9EDF8" transform="translate(486,800)"/>
<path d="M0 0 C9.68122385 -0.86097841 9.68122385 -0.86097841 13.5625 2.375 C17.59756208 6.72045147 17.09247132 9.26677838 17 15 C15.81994066 12.63988133 14.68863179 10.29234498 13.625 7.875 C11.85705452 4.74709645 11.24462546 4.22395124 8 3 C5.63777768 2.76020238 5.63777768 2.76020238 3.25 2.875 C2.05117187 2.90207031 2.05117187 2.90207031 0.828125 2.9296875 C-0.07679688 2.96449219 -0.07679688 2.96449219 -1 3 C-0.67 2.01 -0.34 1.02 0 0 Z " fill="#F0F8FC" transform="translate(191,800)"/>
<path d="M0 0 C0.33 0 0.66 0 1 0 C1.29254918 4.97333608 1.16504232 8.0436971 -2 12 C-5.41936792 14.56452594 -8.85555785 14.15940162 -13 14 C-13 13.34 -13 12.68 -13 12 C-12.39671875 11.88785156 -11.7934375 11.77570312 -11.171875 11.66015625 C-6.0741133 10.42925816 -6.0741133 10.42925816 -2.51171875 6.796875 C-1.54163943 4.55334611 -0.70166387 2.34051515 0 0 Z " fill="#EDF6FB" transform="translate(642,812)"/>
<path d="M0 0 C0.99 0 1.98 0 3 0 C1.36959185 6.01077136 -0.27147357 12.01663928 -2 18 C-2.99 17.34 -3.98 16.68 -5 16 C-4.54548816 14.26982492 -4.08621143 12.54090123 -3.625 10.8125 C-3.36976563 9.84957031 -3.11453125 8.88664063 -2.8515625 7.89453125 C-2.05233704 5.17789793 -1.0968638 2.60862825 0 0 Z " fill="#E2F1F9" transform="translate(174,790)"/>
<path d="M0 0 C1.19109375 -0.00386719 1.19109375 -0.00386719 2.40625 -0.0078125 C4.5 0.125 4.5 0.125 6.5 1.125 C6.17 2.115 5.84 3.105 5.5 4.125 C4.84 3.795 4.18 3.465 3.5 3.125 C-0.02833937 2.64071813 -2.47806444 2.44569012 -5.515625 4.46484375 C-7.24764983 5.96100341 -8.89905762 7.48999502 -10.5 9.125 C-10.83 8.465 -11.16 7.805 -11.5 7.125 C-5.72433512 -0.0185855 -5.72433512 -0.0185855 0 0 Z " fill="#E6F3FA" transform="translate(276.5,799.875)"/>
<path d="M0 0 C0.66 0.33 1.32 0.66 2 1 C2 2.32 2 3.64 2 5 C-5.26 5 -12.52 5 -20 5 C-20.33 6.32 -20.66 7.64 -21 9 C-21.33 9 -21.66 9 -22 9 C-22 6.69 -22 4.38 -22 2 C-21.34 1.67 -20.68 1.34 -20 1 C-20 1.99 -20 2.98 -20 4 C-13.4 4 -6.8 4 0 4 C0 2.68 0 1.36 0 0 Z " fill="#FCFDFE" transform="translate(750,808)"/>
<path d="M0 0 C0.33 0 0.66 0 1 0 C1.17015625 0.61488281 1.3403125 1.22976563 1.515625 1.86328125 C3.30943975 7.9361965 3.30943975 7.9361965 8 12 C8 12.99 8 13.98 8 15 C4.09440939 13.73332196 1.93939313 12.68484694 0 9 C-0.59165358 6.29001528 -0.81711877 3.78893879 -1 1 C-0.67 0.67 -0.34 0.34 0 0 Z " fill="#ECF6FB" transform="translate(472,811)"/>
<path d="M0 0 C1.22589844 0.01353516 1.22589844 0.01353516 2.4765625 0.02734375 C3.41628906 0.04474609 3.41628906 0.04474609 4.375 0.0625 C4.045 0.7225 3.715 1.3825 3.375 2.0625 C1.828125 2.18625 1.828125 2.18625 0.25 2.3125 C-4.72272312 3.27496254 -7.11229676 5.57115057 -10.625 9.0625 C-10.955 8.4025 -11.285 7.7425 -11.625 7.0625 C-5.84735577 -0.08353365 -5.84735577 -0.08353365 0 0 Z " fill="#EDF6FB" transform="translate(413.625,799.9375)"/>
<path d="M0 0 C0.33 0 0.66 0 1 0 C1.06058594 1.19238281 1.12117187 2.38476562 1.18359375 3.61328125 C1.26801149 5.17969925 1.35265887 6.74610488 1.4375 8.3125 C1.47681641 9.09818359 1.51613281 9.88386719 1.55664062 10.69335938 C1.59853516 11.45068359 1.64042969 12.20800781 1.68359375 12.98828125 C1.73858032 14.03302612 1.73858032 14.03302612 1.79467773 15.09887695 C1.95581153 17.2216572 1.95581153 17.2216572 3 20 C5.01508358 20.73323796 5.01508358 20.73323796 7 21 C7 21.66 7 22.32 7 23 C4.0625 22.625 4.0625 22.625 1 22 C-0.20029908 19.59940183 -0.11459743 18.10639351 -0.09765625 15.4296875 C-0.09443359 14.53378906 -0.09121094 13.63789062 -0.08789062 12.71484375 C-0.07951172 11.77769531 -0.07113281 10.84054687 -0.0625 9.875 C-0.05798828 8.93011719 -0.05347656 7.98523438 -0.04882812 7.01171875 C-0.03702357 4.67441613 -0.02055759 2.33723939 0 0 Z " fill="#F4F9FD" transform="translate(710,803)"/>
<path d="M0 0 C0.66 0.33 1.32 0.66 2 1 C2 2.32 2 3.64 2 5 C-5.26 5 -12.52 5 -20 5 C-20.33 6.32 -20.66 7.64 -21 9 C-21.33 7.35 -21.66 5.7 -22 4 C-19.54749907 2.77374953 -18.15689565 2.96574645 -15.4296875 3.12109375 C-14.08583984 3.19360352 -14.08583984 3.19360352 -12.71484375 3.26757812 C-11.77769531 3.32365234 -10.84054687 3.37972656 -9.875 3.4375 C-8.45767578 3.51581055 -8.45767578 3.51581055 -7.01171875 3.59570312 C-4.6741581 3.72556761 -2.33700455 3.8605387 0 4 C0 2.68 0 1.36 0 0 Z " fill="#FDFEFE" transform="translate(527,808)"/>
<path d="M0 0 C0.33 1.32 0.66 2.64 1 4 C0.34 4 -0.32 4 -1 4 C-1.33 4.66 -1.66 5.32 -2 6 C-5.63 5.67 -9.26 5.34 -13 5 C-12.67 4.01 -12.34 3.02 -12 2 C-10.56260487 1.97287934 -9.12506137 1.95354933 -7.6875 1.9375 C-6.48673828 1.92009766 -6.48673828 1.92009766 -5.26171875 1.90234375 C-3 2 -3 2 0 3 C0 2.01 0 1.02 0 0 Z " fill="#C7E4F4" transform="translate(352,807)"/>
<path d="M0 0 C-1 3 -1 3 -2.734375 4.1796875 C-5.38319681 5.13874367 -7.44065467 5.19893014 -10.25 5.125 C-11.14203125 5.10695313 -12.0340625 5.08890625 -12.953125 5.0703125 C-13.96632813 5.03550781 -13.96632813 5.03550781 -15 5 C-15 4.01 -15 3.02 -15 2 C-13.7625 2.04125 -12.525 2.0825 -11.25 2.125 C-7.00738963 2.13996512 -4.07145998 0 0 0 Z " fill="#E8F4FA" transform="translate(750,821)"/>
<path d="M0 0 C-1 3 -1 3 -2.734375 4.1796875 C-5.38319681 5.13874367 -7.44065467 5.19893014 -10.25 5.125 C-11.14203125 5.10695313 -12.0340625 5.08890625 -12.953125 5.0703125 C-13.96632813 5.03550781 -13.96632813 5.03550781 -15 5 C-15 4.01 -15 3.02 -15 2 C-13.7625 2.04125 -12.525 2.0825 -11.25 2.125 C-7.00738963 2.13996512 -4.07145998 0 0 0 Z " fill="#E8F4FA" transform="translate(527,821)"/>
<path d="M0 0 C0.66 0.33 1.32 0.66 2 1 C2 3 2 3 -0.25 5.375 C-1.1575 6.24125 -2.065 7.1075 -3 8 C-3.763125 8.763125 -4.52625 9.52625 -5.3125 10.3125 C-6.1478125 11.1478125 -6.1478125 11.1478125 -7 12 C-6.6257368 6.63556087 -5.0040457 4.50353999 -1 1 C-0.67 0.67 -0.34 0.34 0 0 Z " fill="#DDEFF8" transform="translate(512,800)"/>
<path d="M0 0 C2.97 0 5.94 0 9 0 C9.33 1.32 9.66 2.64 10 4 C6.37 4 2.74 4 -1 4 C-0.67 2.68 -0.34 1.36 0 0 Z " fill="#CCE7F5" transform="translate(374,800)"/>
<path d="M0 0 C0.66 0.33 1.32 0.66 2 1 C1.57742724 2.4835001 1.13643678 3.96176424 0.6875 5.4375 C0.44386719 6.26121094 0.20023438 7.08492187 -0.05078125 7.93359375 C-0.36402344 8.61550781 -0.67726563 9.29742188 -1 10 C-1.99 10.33 -2.98 10.66 -4 11 C-4.49230769 4.6 -4.49230769 4.6 -2 1.5625 C-1.34 1.046875 -0.68 0.53125 0 0 Z " fill="#D7EDF7" transform="translate(591,810)"/>
<path d="M0 0 C0.66 0.33 1.32 0.66 2 1 C2 3 2 3 -0.375 5.5 C-1.24125 6.325 -2.1075 7.15 -3 8 C-3.66 8.66 -4.32 9.32 -5 10 C-5.66 10 -6.32 10 -7 10 C-5.76075855 5.04303419 -4.21422242 2.88341534 0 0 Z " fill="#D7ECF7" transform="translate(735,800)"/>
<path d="M0 0 C0.33 0 0.66 0 1 0 C1.36666667 7.33333333 1.36666667 7.33333333 -0.375 10.5 C-2 12 -2 12 -4 12 C-3.71788123 10.3733152 -3.42397625 8.74867104 -3.125 7.125 C-2.96257812 6.22007812 -2.80015625 5.31515625 -2.6328125 4.3828125 C-2 2 -2 2 0 0 Z " fill="#D4EAF6" transform="translate(208,809)"/>
<path d="M0 0 C0.515625 0.268125 1.03125 0.53625 1.5625 0.8125 C4.66401415 2.32349407 7.82262806 3.65572726 11 5 C11 5.33 11 5.66 11 6 C4.67741935 6.36476427 4.67741935 6.36476427 1.5625 4.6875 C0 3 0 3 0 0 Z " fill="#EFF7FC" transform="translate(588,820)"/>
<path d="M0 0 C0 0.99 0 1.98 0 3 C-1.32 3 -2.64 3 -4 3 C-4.33 3.66 -4.66 4.32 -5 5 C-5.33 5 -5.66 5 -6 5 C-6.33 6.65 -6.66 8.3 -7 10 C-7.33 10 -7.66 10 -8 10 C-8.32899743 6.38102827 -8.44576634 4.60496861 -6.25 1.625 C-4 0 -4 0 0 0 Z " fill="#C9E6F5" transform="translate(566,790)"/>
<path d="M0 0 C3.16115776 1.36983503 3.9927092 1.9890638 6 5 C6 5.99 6 6.98 6 8 C5.01 8 4.02 8 3 8 C0.89229241 5.11165997 0 3.61537605 0 0 Z " fill="#DDEFF8" transform="translate(384,802)"/>
<path d="M0 0 C0.99 0.33 1.98 0.66 3 1 C1.02 3.31 -0.96 5.62 -3 8 C-3.66 7.34 -4.32 6.68 -5 6 C-3.35 4.02 -1.7 2.04 0 0 Z " fill="#0078B6" transform="translate(115,152)"/>
<path d="M0 0 C2.375 0.125 2.375 0.125 5 1 C6.8125 3.5625 6.8125 3.5625 8 6 C7.01 6.33 6.02 6.66 5 7 C4.566875 6.38125 4.13375 5.7625 3.6875 5.125 C2.00259517 2.7802755 2.00259517 2.7802755 -1 1 C-0.67 0.67 -0.34 0.34 0 0 Z " fill="#E1F1F9" transform="translate(417,801)"/>
<path d="M0 0 C3 1 3 1 5 4 C4.625 7.1875 4.625 7.1875 4 10 C3.566875 9.1028125 3.566875 9.1028125 3.125 8.1875 C1.95257974 5.80672208 1.95257974 5.80672208 0 3 C0 2.01 0 1.02 0 0 Z " fill="#DFF0F9" transform="translate(283,802)"/>
<path d="M0 0 C1.35015859 4.05047576 0.62084998 6.7920168 0 11 C-1.5625 9.375 -1.5625 9.375 -3 7 C-2.8125 3.8125 -2.8125 3.8125 -2 1 C-1.34 0.67 -0.68 0.34 0 0 Z " fill="#CFE8F6" transform="translate(474,805)"/>
<path d="M0 0 C1.875 0.25 1.875 0.25 4 1 C5.25 3.0625 5.25 3.0625 6 5 C4 5 2 5 0 5 C0 3.35 0 1.7 0 0 Z " fill="#DEF0F9" transform="translate(623,821)"/>
<path d="M0 0 C4.67461851 -0.32613618 7.16674383 0.29417212 11 3 C10.34 3.66 9.68 4.32 9 5 C8.34 4.34 7.68 3.68 7 3 C4.67724823 2.59952556 2.34260643 2.2602896 0 2 C0 1.34 0 0.68 0 0 Z " fill="#2591D4" transform="translate(737,802)"/>
<path d="M0 0 C6.75 -0.125 6.75 -0.125 9 1 C8.67 1.99 8.34 2.98 8 4 C3.545 3.01 3.545 3.01 -1 2 C-0.67 1.34 -0.34 0.68 0 0 Z " fill="#F6FBFD" transform="translate(274,800)"/>
<path d="M0 0 C0.66 0 1.32 0 2 0 C2 2.64 2 5.28 2 8 C1.01 8.33 0.02 8.66 -1 9 C-0.67 6.03 -0.34 3.06 0 0 Z " fill="#F7FBFD" transform="translate(388,810)"/>
<path d="M0 0 C2 1 4 2 6 3 C6 3.66 6 4.32 6 5 C4.35 4.67 2.7 4.34 1 4 C0.67 2.68 0.34 1.36 0 0 Z " fill="#E9F5FB" transform="translate(674,821)"/>
<path d="M0 0 C0.66 0.33 1.32 0.66 2 1 C1.34 3.31 0.68 5.62 0 8 C-0.99 7.34 -1.98 6.68 -3 6 C-2.625 3.5625 -2.625 3.5625 -2 1 C-1.34 0.67 -0.68 0.34 0 0 Z " fill="#D1E9F6" transform="translate(172,800)"/>
<path d="M0 0 C0.66 0.33 1.32 0.66 2 1 C-0.31 3.31 -2.62 5.62 -5 8 C-5.33 7.34 -5.66 6.68 -6 6 C-4 4 -2 2 0 0 Z " fill="#B4B4B4" transform="translate(314,43)"/>
<path d="M0 0 C0.99 0.66 1.98 1.32 3 2 C3.1875 4.625 3.1875 4.625 3 7 C0.525 6.01 0.525 6.01 -2 5 C-1.01 4.67 -0.02 4.34 1 4 C0.67 2.68 0.34 1.36 0 0 Z " fill="#1A8BD2" transform="translate(603,804)"/>
<path d="M0 0 C0.66 0 1.32 0 2 0 C1.67 2.31 1.34 4.62 1 7 C0.01 6.67 -0.98 6.34 -2 6 C-2 5.34 -2 4.68 -2 4 C-1.34 4 -0.68 4 0 4 C0 2.68 0 1.36 0 0 Z " fill="#F6FBFD" transform="translate(353,807)"/>
</svg>
