<?xml version="1.0" standalone="no"?>
<!DOCTYPE svg PUBLIC "-//W3C//DTD SVG 20010904//EN"
 "http://www.w3.org/TR/2001/REC-SVG-20010904/DTD/svg10.dtd">
<svg version="1.0" xmlns="http://www.w3.org/2000/svg"
 width="1280.000000pt" height="910.000000pt" viewBox="0 0 1280.000000 910.000000"
 preserveAspectRatio="xMidYMid meet">

<g transform="translate(0.000000,910.000000) scale(0.100000,-0.100000)"
fill="#000000" stroke="none">
<path d="M5512 8319 c-423 -57 -771 -312 -947 -693 -257 -557 -69 -1222 438
-1552 156 -101 285 -150 482 -180 517 -79 1043 217 1256 708 174 401 130 859
-118 1214 -108 156 -303 319 -477 399 -192 89 -441 130 -634 104z"/>
<path d="M6284 8311 c-2 -2 20 -20 49 -39 413 -277 645 -731 624 -1224 -15
-369 -157 -693 -413 -939 -160 -155 -276 -230 -607 -396 -114 -57 -242 -124
-283 -148 -42 -25 -81 -42 -86 -38 -6 3 -8 2 -5 -3 3 -5 -31 -34 -76 -64 -213
-142 -360 -278 -546 -505 -70 -86 -198 -322 -264 -490 -89 -225 -149 -509
-172 -822 l-6 -83 2137 0 2137 0 -7 243 c-3 133 -8 476 -11 762 -5 524 -11
953 -20 1340 -3 116 -7 406 -10 645 -6 452 -12 670 -21 730 -40 263 -165 518
-343 697 -117 118 -301 231 -460 282 -163 53 -176 54 -919 55 -381 1 -695 -1
-698 -3z"/>
<path d="M7110 3322 c-50 -25 -80 -74 -80 -134 0 -85 24 -104 188 -148 87 -23
112 -43 112 -88 0 -55 -49 -92 -122 -92 -65 0 -110 28 -126 79 -12 36 -18 41
-43 41 -36 0 -38 -24 -8 -86 31 -65 77 -89 169 -89 128 1 190 50 192 155 2 86
-39 121 -186 154 -87 20 -116 41 -116 86 0 50 38 80 100 80 67 0 105 -21 121
-65 11 -29 18 -35 42 -35 28 0 29 2 24 35 -13 79 -80 125 -180 125 -30 0 -67
-8 -87 -18z"/>
<path d="M4636 3263 c-66 -177 -156 -428 -156 -435 0 -5 15 -8 33 -6 30 3 33
7 57 76 l25 73 99 -3 99 -3 25 -72 c23 -72 24 -73 58 -73 19 0 34 3 34 8 0 4
-38 118 -86 255 l-87 247 -38 0 c-37 0 -37 -1 -63 -67z m95 -110 c17 -54 34
-104 37 -110 3 -10 -16 -13 -73 -13 -57 0 -76 3 -73 13 3 6 20 56 38 110 18
53 34 97 36 97 1 0 17 -44 35 -97z"/>
<path d="M5220 3076 l0 -256 35 0 35 0 0 111 0 111 100 -4 c136 -5 147 -18
149 -175 l1 -43 44 0 45 0 -15 28 c-8 15 -14 55 -14 90 0 65 -11 98 -39 119
-14 10 -13 15 12 41 54 56 45 161 -16 204 -29 21 -45 23 -184 26 l-153 4 0
-256z m295 169 c32 -31 34 -96 6 -124 -22 -22 -97 -34 -178 -29 l-53 3 0 88 0
87 100 0 c94 0 103 -2 125 -25z"/>
<path d="M5900 3300 l0 -30 86 0 85 0 -2 -222 -2 -223 32 -3 31 -3 0 225 0
226 85 0 85 0 0 30 0 30 -200 0 -200 0 0 -30z"/>
<path d="M6616 3322 c-3 -5 -5 -120 -5 -255 l0 -247 34 0 35 0 0 255 0 255
-29 0 c-17 0 -32 -4 -35 -8z"/>
<path d="M7785 3088 c-49 -134 -90 -249 -93 -255 -3 -9 7 -13 30 -13 34 0 35
2 60 73 l25 72 99 0 99 0 25 -72 25 -73 37 0 37 0 -50 143 c-28 78 -66 185
-84 237 -48 138 -42 130 -84 130 l-37 0 -89 -242z m163 54 c18 -54 32 -101 32
-105 0 -4 -34 -7 -76 -7 -57 0 -74 3 -71 13 3 6 20 54 37 105 17 50 35 92 39
92 4 0 21 -44 39 -98z"/>
<path d="M8430 3075 l0 -255 30 0 30 0 2 202 3 202 121 -199 121 -200 42 -3
41 -3 0 256 0 256 -32 -3 -33 -3 0 -198 c0 -108 -2 -197 -5 -197 -5 0 -75 114
-200 325 -43 72 -45 75 -82 75 l-38 0 0 -255z"/>
</g>
</svg>
